<svg width="227" height="98" viewBox="0 0 227 98" fill="none" xmlns="http://www.w3.org/2000/svg">
<path d="M127.295 68.0261H126.744C126.694 68.0157 126.643 67.9972 126.592 67.9957C126.119 67.9815 125.646 67.9795 125.174 67.9557C124.563 67.925 123.95 67.9015 123.343 67.8308C122.573 67.7409 121.805 67.6296 121.044 67.4867C119.688 67.2319 118.376 66.8283 117.143 66.199C115.848 65.5386 114.738 64.662 113.926 63.4396C113.902 63.4034 113.869 63.3735 113.827 63.326C113.805 63.3839 113.788 63.4138 113.781 63.4457C113.663 63.9962 113.544 64.5467 113.429 65.098C113.295 65.7445 113.004 66.2955 112.457 66.6872C111.958 67.0437 111.379 67.1959 110.791 67.3174C109.679 67.547 108.549 67.6128 107.42 67.691C106.814 67.7331 106.206 67.7563 105.599 67.7786C104.919 67.8038 104.239 67.8235 103.559 67.8369C102.782 67.8519 102.004 67.8725 101.227 67.8632C100.224 67.8511 99.22 67.8296 98.218 67.778C97.541 67.7432 96.865 67.6615 96.192 67.5794C95.19 67.4577 94.207 67.2414 93.244 66.9376C91.883 66.5077 90.614 65.903 89.528 64.9569C87.874 63.5158 87.102 61.6493 86.911 59.5076C86.872 59.0713 86.87 58.6319 86.85 58.1938C86.849 58.1704 86.837 58.1475 86.821 58.0964C86.796 58.1608 86.779 58.195 86.769 58.2307C86.125 60.3416 85.476 62.4505 84.843 64.5643C84.598 65.3812 84.084 65.9312 83.31 66.2631C82.636 66.5521 81.928 66.7211 81.212 66.8498C80.345 67.0055 79.4735 67.1411 78.601 67.2614C77.8475 67.3652 77.0904 67.4435 76.3332 67.5165C75.7627 67.5716 75.1899 67.6049 74.6176 67.6403C73.8045 67.6908 72.9914 67.74 72.1777 67.7783C71.5608 67.8073 70.9434 67.8293 70.3259 67.8357C69.1385 67.8476 67.9506 67.8545 66.7632 67.8464C66.0252 67.8415 65.2871 67.814 64.5497 67.7803C63.9577 67.7537 63.3646 67.7229 62.7761 67.6577C62.0109 67.5728 61.247 67.4693 60.4878 67.342C59.3732 67.155 58.2803 66.8768 57.2309 66.4498C56.1598 66.0138 55.1733 65.4491 54.4136 64.5513C53.799 63.8248 53.459 62.9807 53.3821 62.0374C53.3384 61.4988 53.3627 60.9582 53.4639 60.4242C53.6451 59.4661 53.9318 58.5449 54.424 57.6964C55.1142 56.5064 56.0807 55.5834 57.213 54.8228C58.7633 53.7815 60.4791 53.1081 62.2567 52.5762C63.4533 52.2182 64.6682 51.9335 65.8979 51.7169C66.8174 51.5549 67.741 51.4149 68.6643 51.2757C69.4499 51.1575 70.2381 51.0575 71.0245 50.9447C71.8536 50.8255 72.6818 50.7006 73.5106 50.5783C74.3202 50.4588 75.1302 50.342 75.9395 50.2191C76.7202 50.1005 77.5 49.9773 78.2795 49.8521C79.1114 49.7188 79.9452 49.5956 80.773 49.4402C81.367 49.3286 81.816 48.9978 81.998 48.3992C82.092 48.0887 82.151 47.7623 82.181 47.4391C82.252 46.677 81.958 46.0549 81.384 45.5615C80.841 45.0948 80.194 44.8348 79.5155 44.6435C78.1963 44.271 76.8405 44.1654 75.4798 44.1594C74.2883 44.1539 73.0966 44.2078 71.9052 44.2414C71.5101 44.2524 71.1153 44.2797 70.7207 44.3034C70.1482 44.3379 69.5763 44.3756 69.004 44.4121C68.6817 44.4327 68.3596 44.4533 68.0373 44.4756C67.5085 44.5119 66.9801 44.5504 66.4516 44.5861C66.1101 44.6093 65.768 44.624 65.4269 44.6513C64.9085 44.6927 64.3902 44.7388 63.8725 44.7881C63.4461 44.8287 63.0205 44.882 62.5938 44.9194C62.2344 44.951 61.8729 44.9907 61.5131 44.9847C61.1487 44.9783 60.8597 44.7249 61.0186 44.2785C61.2627 43.5929 61.4789 42.8975 61.7149 42.209C61.8192 41.9041 61.9158 41.5916 62.0636 41.3075C62.435 40.5946 63.0576 40.1691 63.7913 39.8885C64.454 39.6351 65.1436 39.5079 65.8486 39.4539C66.7035 39.3884 67.5578 39.3116 68.4135 39.2586C69.1258 39.2142 69.8398 39.1913 70.5532 39.1696C71.4022 39.1438 72.2516 39.1191 73.101 39.1122C74.5492 39.1003 75.9978 39.0954 77.4461 39.1017C78.1116 39.1046 78.7778 39.1278 79.4422 39.1678C80.101 39.2073 80.758 39.271 81.414 39.3394C82.369 39.4389 83.31 39.6169 84.237 39.8676C85.408 40.1842 86.529 40.6181 87.533 41.3162C89.073 42.387 89.896 43.8631 90.008 45.7297C90.051 46.4483 89.99 47.1643 89.85 47.8722C89.833 47.9563 89.825 48.0418 89.811 48.1427C89.847 48.1256 89.858 48.1238 89.863 48.1174C89.911 48.0453 89.959 47.9731 90.004 47.8995C91.276 45.8468 92.909 44.1408 94.91 42.7885C96.793 41.5162 98.855 40.6462 101.045 40.0627C102.481 39.6798 103.94 39.4154 105.421 39.2815C106.179 39.2128 106.937 39.1464 107.698 39.1159C108.449 39.0858 109.203 39.0983 109.956 39.0994C111.075 39.1014 112.194 39.1078 113.312 39.1902C113.954 39.2374 114.573 39.3557 115.163 39.6099C115.893 39.9244 116.435 40.4196 116.603 41.228C116.689 41.6417 116.726 42.0655 116.792 42.4835C116.865 42.9387 116.88 43.4051 117.054 43.8408C117.067 43.8756 117.08 43.9167 117.075 43.9527C117.044 44.195 116.974 44.4237 116.821 44.6197C116.694 44.7823 116.535 44.8713 116.32 44.8499C115.711 44.789 115.103 44.7261 114.493 44.6756C113.826 44.6206 113.158 44.5684 112.489 44.5336C111.699 44.4924 110.909 44.4579 110.118 44.4458C109.428 44.435 108.737 44.4403 108.047 44.4733C107.346 44.5069 106.644 44.5661 105.946 44.6438C104.802 44.771 103.688 45.0371 102.604 45.4291C101.307 45.8984 100.122 46.5628 99.084 47.4771C97.855 48.5589 96.952 49.8762 96.312 51.3731C95.669 52.8774 95.234 54.443 94.992 56.0617C94.859 56.9479 94.821 57.835 94.968 58.7232C95.123 59.6537 95.55 60.4071 96.371 60.917C96.989 61.3008 97.66 61.5478 98.36 61.7243C99.723 62.0681 101.115 62.196 102.514 62.2116C103.701 62.225 104.888 62.1838 106.075 62.1597C106.63 62.1484 107.184 62.1218 107.738 62.0997C107.955 62.091 108.172 62.078 108.388 62.0644C108.946 62.0296 109.504 61.9734 110.062 61.9626C111.013 61.9444 111.965 61.9548 112.917 61.9519C112.986 61.9519 113.055 61.942 113.143 61.9354C113.117 61.8551 113.1 61.8009 113.082 61.7478C112.787 60.9161 112.618 60.0569 112.563 59.1789C112.533 58.7136 112.54 58.244 112.56 57.7779C112.58 57.3216 112.618 56.8644 112.683 56.4125C112.84 55.3138 113.115 54.2415 113.454 53.1846C114.136 51.0537 115.065 49.0436 116.365 47.2136C118.039 44.8586 120.173 43.0349 122.742 41.7191C125.403 40.3561 128.254 39.6522 131.208 39.3154C131.892 39.2374 132.579 39.1762 133.267 39.1444C134.066 39.1072 134.868 39.0965 135.668 39.1012C136.513 39.1061 137.357 39.1336 138.201 39.1681C138.783 39.1922 139.366 39.2252 139.945 39.2902C140.706 39.3754 141.465 39.4766 142.219 39.605C143.448 39.8146 144.651 40.1282 145.794 40.639C146.757 41.0692 147.635 41.6203 148.303 42.456C149.061 43.4051 149.332 44.4971 149.229 45.694C149.217 45.8413 149.207 45.9885 149.195 46.163C149.237 46.1294 149.251 46.1227 149.258 46.1117C149.283 46.0761 149.306 46.039 149.328 46.0019C150.128 44.6649 151.148 43.5239 152.384 42.5748C154.036 41.306 155.903 40.4871 157.902 39.9482C159.202 39.5977 160.524 39.3644 161.867 39.2499C162.486 39.1971 163.105 39.1397 163.726 39.1133C164.313 39.0884 164.903 39.0916 165.492 39.0994C166.491 39.113 167.489 39.1316 168.488 39.1641C169.312 39.191 170.136 39.2287 170.958 39.2864C171.472 39.3226 171.986 39.4081 172.459 39.6279C173.001 39.8792 173.406 40.2677 173.578 40.8587C173.606 40.9535 173.618 41.0532 173.637 41.1506V41.4982C173.613 41.5431 173.582 41.5855 173.566 41.633C173.325 42.3499 173.077 43.0648 172.849 43.7857C172.721 44.1875 172.46 44.4675 172.117 44.6843C171.899 44.822 171.651 44.8768 171.398 44.8675C171.032 44.8539 170.668 44.8061 170.302 44.7928C169.555 44.7652 168.807 44.7383 168.059 44.7333C166.591 44.7235 165.122 44.7203 163.654 44.7319C163.028 44.7368 162.401 44.771 161.776 44.8177C161.038 44.8728 160.319 45.0296 159.621 45.2801C158.107 45.8236 157.114 46.8463 156.67 48.4088C155.667 51.9448 154.646 55.4759 153.632 59.009C152.923 61.4817 152.209 63.9533 151.509 66.4286C151.283 67.2295 150.686 67.5676 149.994 67.5719C147.946 67.5852 145.898 67.5823 143.85 67.5693C143.608 67.5678 143.352 67.4968 143.127 67.3997C142.823 67.2684 142.72 66.9443 142.828 66.6306C142.85 66.5669 142.87 66.5025 142.889 66.4379C143.516 64.3423 144.142 62.2464 144.769 60.1509C145.745 56.8923 146.721 53.6337 147.697 50.3751C147.732 50.258 147.764 50.1397 147.797 50.022L147.763 50.0046C147.723 50.0539 147.682 50.1037 147.641 50.1527C147.353 50.4965 147.084 50.8577 146.774 51.1807C145.915 52.0776 144.904 52.7759 143.811 53.3583C142.321 54.1526 140.739 54.7033 139.108 55.1231C137.889 55.4367 136.656 55.6794 135.41 55.8521C134.814 55.9348 134.217 56.0119 133.62 56.0904C132.981 56.1745 132.341 56.2583 131.701 56.3406C131.142 56.4125 130.583 56.4809 130.024 56.5531C129.466 56.6253 128.908 56.7024 128.35 56.774C127.781 56.847 127.212 56.9146 126.644 56.9873C126.009 57.0688 125.375 57.1552 124.74 57.2369C124.1 57.3193 123.459 57.3978 122.819 57.4796C122.093 57.5723 121.368 57.6686 120.641 57.7584C120.524 57.7729 120.466 57.8152 120.471 57.939C120.484 58.2278 120.48 58.5176 120.502 58.8055C120.545 59.3766 120.707 59.9137 121.017 60.3984C121.576 61.2701 122.409 61.7557 123.376 62.0389C124.351 62.3247 125.357 62.4517 126.366 62.527C127.255 62.5934 128.147 62.6355 129.039 62.6444C130.004 62.654 130.969 62.6189 131.934 62.592C132.571 62.5743 133.206 62.5363 133.842 62.5082C134.728 62.4685 135.615 62.4308 136.501 62.3893C136.881 62.3717 137.262 62.349 137.642 62.3259C138.219 62.2905 138.796 62.2534 139.374 62.2154C139.758 62.1902 140.143 62.1574 140.528 62.1366C140.869 62.118 141.212 62.0968 141.554 62.1032C141.998 62.1113 142.192 62.3911 142.063 62.8085C141.917 63.2828 141.775 63.7585 141.613 64.2278C141.453 64.6957 141.368 65.1899 141.121 65.6282C141.092 65.6801 141.094 65.7497 141.08 65.8103C141.063 65.8796 141.054 65.9529 141.024 66.017C140.722 66.6791 140.195 67.0898 139.527 67.344C138.843 67.6047 138.124 67.6841 137.404 67.745C136.617 67.8116 135.827 67.8531 135.037 67.8922C134.416 67.9229 133.793 67.938 133.171 67.9511C132.447 67.9664 131.723 67.9763 130.998 67.9809C129.825 67.9882 128.651 67.9888 127.478 67.9943C127.417 67.9943 127.356 68.014 127.296 68.0244L127.295 68.0261ZM121.478 52.8458C121.537 52.8458 121.564 52.8489 121.591 52.8452C122.531 52.7179 123.471 52.5889 124.411 52.4625C125.446 52.3234 126.482 52.1886 127.517 52.0483C128.476 51.9181 129.434 51.7827 130.392 51.6506C131.374 51.5152 132.357 51.3859 133.339 51.2444C134.561 51.0682 135.769 50.8183 136.95 50.4562C138.011 50.1313 139.038 49.7295 139.931 49.0494C140.529 48.5937 140.984 48.0348 141.176 47.2881C141.404 46.401 141.163 45.6969 140.428 45.1461C140.049 44.8626 139.621 44.6739 139.174 44.5287C137.803 44.084 136.383 43.9637 134.956 43.8944C134.422 43.8683 133.885 43.8747 133.351 43.8924C132.658 43.9156 131.965 43.9579 131.272 44.0054C130.421 44.064 129.579 44.1962 128.746 44.3858C127.807 44.6 126.896 44.8971 126.058 45.3856C125.027 45.9871 124.23 46.8306 123.581 47.8197C122.715 49.1384 122.144 50.5887 121.691 52.09C121.618 52.3329 121.553 52.5788 121.478 52.8458ZM80.188 53.9589C80.089 53.9647 80.022 53.9641 79.9562 53.9731C79.346 54.0563 78.736 54.1436 78.1255 54.225C77.1475 54.3555 76.1688 54.481 75.1905 54.6106C74.1121 54.7535 73.034 54.8987 71.9559 55.0431C70.8729 55.188 69.7899 55.3324 68.7072 55.4782C67.7961 55.6008 66.8847 55.7217 65.9744 55.8504C65.1955 55.9603 64.4465 56.1731 63.749 56.5441C62.7689 57.0656 62.0514 57.8225 61.6891 58.8861C61.3438 59.8992 61.6401 60.7747 62.5184 61.3774C62.8878 61.6307 63.2898 61.8145 63.7116 61.9577C64.7917 62.3247 65.9127 62.4807 67.0433 62.5601C67.8796 62.6186 68.7197 62.6415 69.5583 62.6494C70.5138 62.6586 71.4698 62.6355 72.4255 62.6224C72.7583 62.6181 73.0911 62.6036 73.4236 62.5914C73.6549 62.583 73.8863 62.5752 74.117 62.5589C74.7272 62.5157 75.3377 62.4754 75.9468 62.4201C76.4355 62.3757 76.9214 62.3003 77.4101 62.2606C77.5933 62.2458 77.6478 62.1586 77.6954 62.0047C78.4233 59.6482 79.1564 57.2935 79.888 54.9379C79.9863 54.6216 80.083 54.3047 80.189 53.9592L80.188 53.9589Z" fill="#898989"/>
</svg>
