<svg width="283" height="98" viewBox="0 0 283 98" fill="none" xmlns="http://www.w3.org/2000/svg">
<path fill-rule="evenodd" clip-rule="evenodd" d="M204.425 54.7946C206.623 54.7946 207.479 56.2382 207.588 57.5001C207.598 57.575 207.538 57.6391 207.469 57.6498H207.459H201.41C201.341 57.6498 201.281 57.5857 201.281 57.5108C201.281 57.5001 201.281 57.5001 201.281 57.4894C201.46 56.2703 202.475 54.7946 204.425 54.7946ZM207.737 62.8043C207.658 62.8043 207.578 62.8471 207.528 62.9113C206.981 63.7347 206.096 64.248 204.773 64.248C202.942 64.248 201.361 62.954 201.191 61.1254C201.181 61.0505 201.241 60.9863 201.311 60.9757H201.321H212.184C212.214 60.8687 212.283 60.0881 212.283 59.3716C212.283 53.9283 209.259 50.6881 204.365 50.6881C200.266 50.6881 196.476 54.1636 196.476 59.6068C196.476 65.296 200.356 68.6325 204.713 68.6325C208.652 68.6325 211.139 66.2692 211.955 63.4032C211.965 63.3818 211.985 63.2749 212.015 63.1251C212.045 62.9754 211.955 62.8364 211.816 62.8043C211.796 62.8043 211.786 62.7936 211.766 62.7936H207.737V62.8043ZM217.337 59.5427L212.184 51.6505C212.104 51.5222 212.134 51.3618 212.244 51.2655C212.283 51.2335 212.333 51.2121 212.393 51.2121H217.456C217.546 51.2121 217.626 51.2548 217.665 51.3297L220.312 55.6608C220.361 55.7463 220.471 55.7463 220.52 55.6608L223.107 51.3404C223.157 51.2655 223.236 51.2121 223.316 51.2121H228.091C228.3 51.2121 228.419 51.458 228.3 51.6398L223.216 59.3288C223.157 59.425 223.157 59.5427 223.216 59.6389C224.878 62.1841 226.778 65.1249 228.489 67.7022C228.608 67.884 228.489 68.1299 228.28 68.1299H223.256C223.167 68.1299 223.087 68.0871 223.047 68.0123L220.302 63.5422C220.262 63.478 220.182 63.4673 220.123 63.4994C220.113 63.5101 220.093 63.5208 220.083 63.5422C219.257 64.8576 218.183 66.6862 217.367 68.0123C217.317 68.0871 217.238 68.1299 217.158 68.1299H212.472C212.333 68.1299 212.224 68.0123 212.214 67.8626C212.214 67.8091 212.234 67.7556 212.264 67.7022L217.327 59.8421C217.407 59.7565 217.407 59.6282 217.337 59.5427ZM190.05 67.8626V43.7691C190.05 43.6194 190.169 43.491 190.308 43.491H194.636C194.775 43.491 194.894 43.6087 194.894 43.7691V67.8626C194.894 68.0123 194.775 68.1299 194.636 68.1299H190.308C190.169 68.1406 190.06 68.0123 190.05 67.8626ZM182.937 67.8626V43.7691C182.937 43.6194 183.056 43.491 183.195 43.491H187.513C187.652 43.491 187.771 43.6087 187.771 43.7691V67.8626C187.771 68.0123 187.662 68.1299 187.513 68.1299H183.185C183.046 68.1406 182.937 68.0123 182.937 67.8626ZM172.243 64.1518C174.182 64.1518 175.834 62.5156 175.834 59.6603C175.834 56.7302 174.212 55.2009 172.243 55.2009C170.173 55.2009 168.621 56.7302 168.621 59.6603C168.621 62.4514 170.243 64.1518 172.243 64.1518ZM175.864 65.959C175.167 67.5952 173.576 68.6111 171.606 68.6111C166.96 68.6111 163.757 64.8362 163.757 59.6282C163.757 54.5914 166.781 50.7095 171.447 50.7095C174.272 50.7095 175.515 52.3777 175.834 53.1584V51.4901C175.834 51.3404 175.943 51.2228 176.092 51.2228H180.261C180.4 51.2228 180.519 51.3404 180.519 51.5008V67.8733C180.519 68.023 180.41 68.1406 180.261 68.1406H176.102C175.963 68.1406 175.844 68.023 175.844 67.8733C175.844 67.2423 175.864 65.82 175.864 65.959ZM153.441 51.4046L156.336 60.8366C156.375 60.965 156.545 60.965 156.574 60.8259L159.051 51.4153C159.081 51.2976 159.181 51.2121 159.3 51.2121H163.498C163.667 51.2121 163.797 51.3939 163.747 51.565L159.012 67.9374C158.982 68.055 158.882 68.1299 158.773 68.1299H154.346C154.237 68.1299 154.137 68.055 154.107 67.9481L150.854 57.5964C150.814 57.468 150.645 57.468 150.615 57.5964L147.422 67.9481C147.392 68.055 147.293 68.1299 147.183 68.1299H142.657C142.548 68.1299 142.448 68.055 142.418 67.9374L137.623 51.565C137.584 51.426 137.653 51.2655 137.792 51.2228C137.812 51.2121 137.842 51.2121 137.872 51.2121H142.359C142.468 51.2121 142.568 51.2976 142.607 51.4153L145.084 60.7939C145.114 60.9222 145.283 60.9222 145.323 60.8045L148.248 51.4046C148.278 51.2976 148.377 51.2121 148.487 51.2121H153.242C153.311 51.2228 153.411 51.2976 153.441 51.4046ZM136.28 55.9923C136.28 56.142 136.171 56.2596 136.022 56.2596C136.012 56.2596 135.992 56.2596 135.982 56.2596C135.574 56.1848 135.166 56.1527 134.748 56.1527C132.808 56.1527 131.058 57.3825 131.058 60.7511V67.8626C131.058 68.0123 130.948 68.1299 130.809 68.1299H126.482C126.342 68.1299 126.223 68.0123 126.223 67.8626V51.4901C126.223 51.3404 126.332 51.2121 126.482 51.2121H130.65C130.789 51.2121 130.898 51.3297 130.898 51.4901V53.5006C131.724 51.5971 133.734 51.0517 134.997 51.0517C135.385 51.0517 135.773 51.0944 136.071 51.1693C136.191 51.2014 136.27 51.3083 136.27 51.4367C136.28 51.426 136.28 55.9923 136.28 55.9923ZM119.02 67.8626V51.4901C119.02 51.3404 119.13 51.2121 119.279 51.2121H123.607C123.746 51.2121 123.865 51.3297 123.865 51.4901V67.8626C123.865 68.0123 123.756 68.1299 123.607 68.1299H119.279C119.14 68.1406 119.02 68.0123 119.02 67.8626ZM121.408 43.0205C123 43.0205 124.273 44.3786 124.273 46.0469C124.273 47.7152 123 49.0733 121.408 49.0733C119.886 49.0733 118.613 47.7152 118.613 46.0469C118.613 44.3786 119.876 43.0205 121.408 43.0205ZM103.621 58.3342H108.734C108.824 58.3342 108.883 58.238 108.854 58.1525L106.327 50.3566C106.307 50.2817 106.227 50.2496 106.168 50.271C106.128 50.2817 106.098 50.3138 106.088 50.3566L103.501 58.1525C103.472 58.238 103.541 58.3342 103.621 58.3342ZM110.326 63.2321H101.969C101.86 63.2321 101.77 63.3069 101.731 63.4139L100.229 67.9481C100.189 68.055 100.099 68.1299 99.9898 68.1299H95.2645C95.1252 68.1299 95.0059 68.0123 95.0059 67.8626C95.0059 67.8305 95.0158 67.7984 95.0258 67.7663L103.322 44.1755C103.362 44.0685 103.452 43.9937 103.561 44.0043H109.023C109.132 44.0043 109.222 44.0792 109.261 44.1861L117.469 67.777C117.518 67.916 117.449 68.0764 117.319 68.1299C117.29 68.1406 117.26 68.1513 117.23 68.1513H112.306C112.196 68.1513 112.107 68.0764 112.067 67.9695L110.565 63.4353C110.525 63.3069 110.425 63.2321 110.326 63.2321Z" fill="#898989"/>
<path fill-rule="evenodd" clip-rule="evenodd" d="M88.8977 53.0509C90.1611 54.3769 90.5789 56.3767 89.9522 58.1519L87.6144 64.9746C86.9976 66.7605 85.6049 68.1507 83.8739 68.5143C82.1131 68.8886 80.3026 68.1935 79.1685 66.7071L65.1716 48.6771C65.0622 48.538 64.8632 48.5167 64.7339 48.6343C64.6941 48.6664 64.6642 48.7198 64.6443 48.7733L60.0881 62.0231C59.9986 62.3012 60.2473 62.5578 60.496 62.4509L66.0868 60.002C67.3502 59.4566 68.7927 60.1089 69.3 61.467C69.3199 61.5312 69.3498 61.5954 69.3597 61.6595C69.7775 63.0177 69.0812 64.4934 67.8576 65.0281L60.5557 68.2363C59.2028 68.8352 57.6509 68.7282 56.4372 67.8513C54.7261 66.6215 54.0298 64.3009 54.746 62.2263L60.1279 46.581C60.7646 44.731 62.217 43.4156 64.0176 43.0841C65.7983 42.7419 67.6089 43.4584 68.7628 44.9663L76.8009 55.318L84.1923 52.067C85.8238 51.3292 87.6243 51.7141 88.8977 53.0509ZM84.63 58.2588C84.7195 57.9808 84.4708 57.7241 84.2221 57.8311L80.1434 59.6277L82.5906 62.7824C82.7001 62.9214 82.8891 62.9428 83.0284 62.8252C83.0681 62.7824 83.098 62.7396 83.1179 62.6861L84.63 58.2588Z" fill="#898989"/>
</svg>
