<svg width="239" height="98" viewBox="0 0 239 98" fill="none" xmlns="http://www.w3.org/2000/svg">
<path d="M115.829 44.1221V47.406C115.829 47.406 117.259 47.1215 118.397 44.5489C119.539 41.9763 117.544 43.1184 115.829 44.1181M111.264 46.6907C111.264 46.6907 108.411 46.9752 106.985 50.9744C106.985 50.9744 110.695 50.5437 111.264 48.6903V46.6907ZM108.127 45.5487C108.553 45.1219 111.549 43.6953 111.549 43.6953C111.549 43.6953 111.264 39.5539 111.407 38.8426C111.549 38.1273 112.975 39.1271 113.975 40.9805C114.975 42.8417 115.113 42.1225 115.113 42.1225C118.255 41.4112 120.251 41.9803 119.824 42.8378C119.393 43.6953 119.251 46.6907 118.966 48.2635C118.682 49.8323 117.824 50.5476 117.824 50.5476C116.398 50.4014 116.255 51.5434 115.825 52.401C115.394 53.2585 114.26 55.5426 114.26 59.115C114.26 62.6873 114.114 61.8258 113.26 61.9681C112.402 62.1104 111.691 61.5374 111.691 60.1108C111.691 58.6842 111.118 52.401 111.118 52.401C111.118 52.401 109.265 53.1162 108.265 53.4047C107.265 53.6853 107.265 52.6855 106.123 52.5432C104.981 52.401 104.55 49.6901 104.839 49.1171C105.123 48.548 105.408 47.1175 105.835 45.6909C106.261 44.2604 106.977 43.4068 106.977 43.4068C106.692 44.5489 108.119 45.5487 108.119 45.5487" fill="#898989"/>
<path d="M124.961 43.4122C124.961 43.4122 125.819 44.408 125.819 45.2695C125.819 46.1309 125.108 54.2636 124.961 55.5519C124.819 56.8362 125.246 57.836 124.25 57.6937C123.25 57.5515 124.108 52.837 124.108 50.6991C124.108 48.5613 124.535 42.8431 124.961 43.4161" fill="#898989"/>
<path d="M127.1 44.2653C127.1 44.2653 130.669 42.8387 131.665 42.6965C132.665 42.5542 133.664 43.1232 132.522 45.1228C131.38 47.1224 131.522 46.8379 132.38 47.4109C133.234 47.9799 132.949 49.4104 132.095 49.9795C131.238 50.5525 130.953 50.9793 131.811 51.4061C132.665 51.8329 133.522 52.4059 132.095 53.2634C130.665 54.1209 128.958 55.4052 128.385 55.6897C127.816 55.9743 126.101 55.836 126.247 54.9745C126.389 54.1209 126.674 52.9749 127.243 52.4059C127.812 51.8329 126.816 51.2638 126.385 50.9753C125.958 50.6908 126.101 49.5488 127.243 48.9758C128.385 48.4067 128.385 47.4069 127.527 47.2647C126.67 47.1224 126.531 47.2647 126.385 45.9803C126.243 44.6921 127.097 44.2653 127.097 44.2653" fill="#898989"/>
<path d="M125.818 57.1161C125.818 57.1161 132.236 56.2586 133.236 54.6897C133.236 54.6897 134.2 54.1879 133.556 55.2588C132.916 56.3297 128.956 58.4715 127.458 58.7916C125.961 59.1157 126.316 59.4002 125.818 57.1122" fill="#898989"/>
<path d="M138.228 58.3995C138.086 57.2574 137.659 44.1218 137.802 42.4068C137.944 40.6917 137.517 39.1189 134.522 39.4074C131.526 39.692 126.531 42.2645 125.678 42.4068C125.678 42.4068 126.962 43.5488 127.962 42.8336C128.958 42.1183 131.238 41.407 133.095 41.407C134.952 41.407 135.237 40.9763 135.237 43.2604C135.237 44.2088 135.261 46.6233 135.249 49.1563C134.411 48.8086 133.166 48.7849 133.028 50.33C133.028 50.33 134.913 50.4328 135.233 51.1204C135.19 53.9854 135.083 56.554 134.81 56.8267C134.81 56.8267 134.241 57.6881 133.526 56.1114C133.526 56.1114 134.379 59.6838 135.81 61.1103C137.237 62.5409 138.375 59.5415 138.232 58.3995" fill="#898989"/>
<path d="M149.393 49.2648V51.0866C149.393 51.0866 151.428 51.4067 151.855 49.0475C151.855 49.0475 150.89 48.6207 149.393 49.2648ZM149.286 45.728C149.286 45.728 148.859 46.9057 149.286 47.3364C149.286 47.3364 151.108 47.3364 151.961 46.4789C152.815 45.6213 152.285 44.6571 151.748 44.8705C151.214 45.0839 149.61 45.3013 149.29 45.728M144.149 52.7977C144.899 53.6513 145.22 52.9044 145.864 52.3709C146.504 51.8335 145.864 50.7626 145.864 50.7626C144.793 50.6559 143.406 51.9402 144.149 52.7977ZM147.041 44.9812C147.041 44.9812 147.361 41.0176 148.646 41.231C149.93 41.4444 150.037 42.7326 149.503 44.2303C149.503 44.2303 151.214 43.3728 152.179 43.0527C153.143 42.7326 155.174 43.8036 154.743 46.1588C154.316 48.518 153.676 50.1184 154.103 50.8732C154.53 51.6201 154.103 53.4418 152.605 53.5485C151.112 53.6552 150.57 53.8686 150.037 54.082C149.503 54.2954 148.756 54.7261 148.97 55.9038C149.183 57.0814 149.93 57.1841 151.641 56.868C153.352 56.5479 153.783 56.3305 154.637 56.0105C155.49 55.6904 156.028 55.1529 156.565 56.3305C157.098 57.5082 155.387 58.3657 154.85 58.4724C154.313 58.5791 151.855 59.4366 149.823 59.4366C147.792 59.4366 146.401 59.4366 145.65 55.7931C145.65 55.7931 144.259 55.6864 143.939 54.8289C143.619 53.9714 143.726 53.758 143.082 53.6513C142.442 53.5446 142.655 52.1536 142.762 50.6559C142.868 49.1542 142.548 48.7274 142.655 48.1939C142.762 47.6565 143.188 47.8699 143.619 47.0163C144.046 46.1588 144.263 45.5147 144.583 46.9057C144.903 48.2967 144.583 49.0475 145.01 49.1542C145.441 49.2609 146.294 48.7274 146.618 47.5498C146.939 46.3722 145.548 47.0163 145.548 47.0163C145.548 47.0163 144.157 46.2655 147.045 44.9812" fill="#898989"/>
<path d="M162.124 43.1596C162.124 43.1596 163.515 44.9813 162.977 47.9767C162.977 47.9767 164.262 47.9767 164.368 49.1543C164.479 50.332 163.942 53.6514 163.942 54.829C163.942 56.0066 163.621 59.0021 162.551 59.3261C161.48 59.6462 161.8 59.1127 161.8 57.8244C161.8 56.5362 162.657 53.8609 162.12 50.328C162.12 50.328 161.266 50.4347 160.729 51.5056C160.195 52.5765 159.444 53.0033 159.338 51.5056C159.231 50.0079 159.338 49.1504 160.089 47.8661C160.839 46.5778 161.8 42.6182 162.12 43.1517" fill="#898989"/>
<path d="M167.368 41.6609C167.368 41.6609 168.759 39.9458 169.505 39.519C170.256 39.0883 171.541 40.2699 171.967 40.9101C172.394 41.5542 172.287 42.0916 172.287 42.0916H174.429C174.429 42.0916 174.536 42.8424 174.216 43.1625C173.896 43.4866 174.109 44.1268 173.145 44.1268C172.181 44.1268 167.901 44.0201 166.083 44.3402C164.265 44.6602 163.945 44.3402 164.265 43.8067C164.586 43.2692 165.87 43.1625 166.407 43.0558C166.941 42.9491 168.759 42.8424 169.189 42.7358C169.616 42.6291 169.829 41.8743 168.759 41.7715C167.688 41.6648 167.368 41.6648 167.368 41.6648" fill="#898989"/>
<path d="M168.546 45.4079C168.546 45.4079 169.297 44.4437 171.222 44.7677C173.15 45.0878 173.257 46.9096 172.83 47.4431C172.399 47.9766 169.941 47.6565 169.404 47.123C168.87 46.5855 168.226 46.0521 168.546 45.4079Z" fill="#898989"/>
<path d="M167.794 48.513C167.794 48.513 171.754 48.4062 172.608 48.4062C173.461 48.4062 172.714 49.3706 172.394 49.908C172.074 50.4415 171.861 51.0855 170.363 50.6587C168.865 50.228 166.19 49.2638 167.794 48.5169" fill="#898989"/>
<path d="M166.189 51.8332C166.189 51.8332 166.616 55.6901 166.407 56.761C166.189 57.8319 166.407 59.4363 167.905 59.7564C167.905 59.7564 168.758 59.4363 168.655 57.5078C168.549 55.5794 168.975 55.1487 168.975 55.1487C168.975 55.1487 169.726 55.3621 169.94 54.5085C170.153 53.651 171.117 53.971 170.366 55.4727C169.616 56.9744 169.189 57.0811 169.296 57.9346C169.402 58.7922 169.616 59.2189 170.58 59.1162C171.544 59.0056 173.362 59.0056 173.362 59.0056C173.362 59.0056 174.433 58.4721 173.789 57.4012C173.148 56.3302 173.255 56.1129 173.575 55.2593C173.895 54.4018 174.002 51.5091 171.864 51.7265C169.726 51.9399 170.473 52.9041 169.296 52.9041C168.118 52.9041 167.798 53.1214 166.193 51.8332" fill="#898989"/>
<path d="M109.868 69.0543C109.418 69.157 108.912 69.2795 108.102 69.2795C106.513 69.2795 104.676 68.5169 104.676 66.3671C104.676 64.3873 106.13 63.4033 108.094 63.4033C108.699 63.4033 109.291 63.5337 109.86 63.6958L109.734 64.9208C109.22 64.6521 108.726 64.5256 108.177 64.5256C107.051 64.5256 106.32 65.3041 106.32 66.3632C106.32 67.4776 107.146 68.1533 108.307 68.1533C108.829 68.1533 109.355 68.0268 109.793 67.8609L109.868 69.0543Z" fill="#898989"/>
<path d="M110.553 63.502H112.141V65.6754H114.018V63.502H115.607V69.1845H114.018V66.7503H112.141V69.1845H110.553V63.502Z" fill="#898989"/>
<path d="M118.339 63.502H116.75V69.1806H118.339V63.502Z" fill="#898989"/>
<path d="M119.508 63.502H121.535L123.55 67.3588H123.566L123.543 63.502H124.993V69.1845H123.021L120.934 65.3H120.919L120.97 69.1845H119.508V63.502Z" fill="#898989"/>
<path d="M125.598 69.1806H127.214L127.684 67.9714H129.921L130.363 69.1806H132.106L129.806 63.502H127.858L125.594 69.1806H125.598ZM129.545 66.8965H128.048L128.818 64.6756H128.834L129.545 66.8965Z" fill="#898989"/>
<path d="M136.279 64.6242H134.809V63.502H139.337V64.6242H137.867V69.1845H136.279V64.6242Z" fill="#898989"/>
<path d="M139.914 63.502H144.119V64.5768H141.503V65.7505H143.972V66.8214H141.503V68.1097H144.214V69.1845H139.914V63.502Z" fill="#898989"/>
<path d="M145.135 63.502H146.723V68.0583H149.181V69.1845H145.135V63.502Z" fill="#898989"/>
<path d="M149.795 63.502H154V64.5768H151.387V65.7505H153.853V66.8214H151.387V68.1097H154.09V69.1845H149.795V63.502Z" fill="#898989"/>
<path d="M159.982 69.0543C159.531 69.157 159.025 69.2795 158.215 69.2795C156.627 69.2795 154.789 68.5169 154.789 66.3671C154.789 64.3873 156.239 63.4033 158.203 63.4033C158.808 63.4033 159.397 63.5337 159.97 63.6958L159.839 64.9208C159.33 64.6521 158.836 64.5256 158.286 64.5256C157.16 64.5256 156.429 65.3041 156.429 66.3632C156.429 67.4776 157.255 68.1533 158.417 68.1533C158.938 68.1533 159.464 68.0268 159.903 67.8609L159.978 69.0543H159.982Z" fill="#898989"/>
<path d="M160.445 66.3434C160.445 68.1494 161.489 69.2795 163.433 69.2795C165.377 69.2795 166.42 68.1494 166.42 66.3434C166.42 64.5375 165.397 63.4033 163.433 63.4033C161.469 63.4033 160.445 64.5177 160.445 66.3434ZM162.085 66.3434C162.085 65.3555 162.469 64.5296 163.433 64.5296C164.397 64.5296 164.78 65.3594 164.78 66.3434C164.78 67.276 164.393 68.1573 163.433 68.1573C162.469 68.1573 162.085 67.28 162.085 66.3434Z" fill="#898989"/>
<path d="M167.221 63.502H169.722L170.987 67.2759H171.003L172.326 63.502H174.737V69.1845H173.18L173.208 64.8218H173.192L171.67 69.1845H170.208L168.762 64.8218H168.742L168.778 69.1845H167.221V63.502Z" fill="#898989"/>
<path d="M88.44 35.9863V38.2704C97.857 42.6964 85.5868 48.6911 82.8759 49.5487C82.4017 49.6988 81.7022 49.8688 80.8763 50.0308C80.8763 50.011 80.8763 49.9952 80.8763 49.9794C80.8763 49.9794 81.0186 40.1238 85.4405 42.4118C85.4405 42.4118 87.298 42.5541 86.44 40.7007C85.5828 38.8474 82.0183 34.9905 79.7342 36.9861C77.8414 38.6419 75.3636 41.4832 74.3283 50.5248C71.8901 50.3509 69.8352 49.6317 69.4637 47.8376C68.6062 43.6962 73.3166 41.6966 75.3123 40.8391V39.124C67.8949 41.5543 62.3308 47.8376 64.8994 52.4058C66.6501 55.5237 70.1908 56.5116 73.8975 56.6895C73.8975 56.7843 73.8936 56.8791 73.8857 56.9779C74.3125 62.1152 77.0273 73.8242 81.4493 73.1089C85.8713 72.3936 88.013 66.8256 88.867 58.9736L86.44 59.5466C86.44 59.5466 86.298 66.6834 83.5872 66.5411C81.635 66.4384 80.7222 61.6726 80.6273 56.2943C86.393 55.0416 96.869 49.7621 98.426 44.8422C100.137 39.4125 92.293 36.4131 88.44 35.9863Z" fill="#898989"/>
</svg>
