<svg width="219" height="98" viewBox="0 0 219 98" fill="none" xmlns="http://www.w3.org/2000/svg">
<path d="M65.441 29.1955V37.776C65.387 40.0587 62.0378 39.6506 62.0378 39.6506V27.3032C62.0378 27.3032 65.3816 26.9128 65.441 29.1955ZM119.871 62.3823C116.748 62.9263 113.625 63.3166 110.524 63.565L110.637 64.6117C113.738 64.381 116.861 63.9907 119.979 63.429L119.871 62.3823ZM120.183 65.3686L120.27 66.303C117.185 66.8673 114.076 67.2621 110.955 67.4857L110.848 66.5277C113.943 66.2911 117.072 65.9068 120.167 65.345L120.183 65.3686ZM120.135 64.931C117.023 65.4751 113.911 65.8713 110.81 66.1137L110.691 65.0729C113.792 64.8423 116.915 64.452 120.027 63.8902L120.135 64.931ZM119.811 61.921C116.689 62.4651 113.56 62.8553 110.459 63.1037L110.346 62.0807C110.346 62.0807 112.045 61.7199 111.964 60.0701C111.937 59.8276 111.63 57.2375 111.565 56.8295C111.387 55.6054 110.066 55.9897 110.066 55.9897C110.066 55.9897 109.526 51.3299 109.569 51.324C109.92 51.2707 110.929 51.1643 110.794 49.9461C110.675 48.8817 110.368 46.4394 110.368 46.4394L116.236 45.6883C116.236 45.6883 116.484 48.1602 116.597 49.2365C116.737 50.4487 117.729 50.2477 118.085 50.2063C118.118 50.2063 118.625 54.8662 118.625 54.8662C118.625 54.8662 117.266 54.8662 117.363 56.1257C117.406 56.5338 117.681 59.1239 117.708 59.3664C117.967 60.9985 119.709 60.8507 119.709 60.8507L119.811 61.921ZM68.4774 44.1804H53.1819V39.5146C53.1819 39.5146 55.7545 39.5146 55.8786 37.1492V29.8105C55.7653 27.4451 53.1819 27.4451 53.1819 27.4451V22.7793H68.4774C68.4774 22.7793 71.5247 22.7793 71.6164 26.286V40.6796C71.5139 44.1508 68.4774 44.1804 68.4774 44.1804ZM65.441 29.1955C65.387 26.9128 62.0378 27.3032 62.0378 27.3032V39.6506C62.0378 39.6506 65.387 40.0587 65.441 37.776V29.1955ZM72.544 40.4312V43.932H77.684V40.4844C77.59 40.4799 77.497 40.455 77.412 40.4112C77.326 40.3674 77.25 40.3056 77.186 40.2292C77.122 40.1529 77.073 40.0635 77.041 39.9662C77.009 39.869 76.995 39.7658 76.999 39.6624V37.5631C76.999 35.9133 78.552 35.866 78.552 37.6518V38.2787H81.459V36.7826C81.459 33.0334 78.434 32.7614 76.789 34.6596V33.5183H72.544V36.3331C72.7348 36.3423 72.9145 36.434 73.0438 36.588C73.1732 36.742 73.2417 36.9459 73.2344 37.1551V39.5974C73.2402 39.7015 73.2272 39.8058 73.1962 39.9044C73.1652 40.003 73.1167 40.0939 73.0536 40.172C72.9905 40.25 72.9139 40.3136 72.8283 40.3591C72.7427 40.4046 72.6498 40.4311 72.5548 40.4371L72.544 40.4312ZM78.854 43.9379H81.616V40.5258H78.854V43.9379ZM62.0432 27.3032V39.6506C62.0432 39.6506 65.3924 40.0587 65.4464 37.776V29.1955C65.3816 26.9128 62.0432 27.3032 62.0432 27.3032ZM92.785 63.7956L78.196 63.8725C78.35 64.2389 78.53 64.591 78.736 64.9251L92.807 64.8482L92.785 63.7956ZM92.785 66.8292V67.8464H86.195V66.8648L92.785 66.8292ZM92.785 66.3621L86.168 66.3976V66.0428C86.107 66.1702 86.033 66.2893 85.947 66.3976L79.922 66.4271C79.582 66.118 79.277 65.7668 79.011 65.3804L92.791 65.3095L92.785 66.3621ZM80.505 66.8884H85.483C84.852 67.3249 84.137 67.592 83.395 67.668C82.652 67.7441 81.904 67.6269 81.211 67.326C80.972 67.2017 80.739 67.0615 80.515 66.9061L80.505 66.8884ZM91.723 61.0399V51.5427H86.205V53.3937C85.585 52.0277 83.05 51.2707 81.243 52.14C78.547 53.4528 77.468 56.6816 77.506 59.7448C77.491 61.006 77.682 62.26 78.072 63.4467L92.828 63.3698V62.3468C92.532 62.3345 92.252 62.1937 92.05 61.9554C91.847 61.7171 91.74 61.4007 91.75 61.0754L91.723 61.0399ZM84.976 62.3231C84.064 62.3231 83.325 60.8329 83.325 58.9879C83.325 57.1429 84.064 55.6467 84.976 55.6467C85.887 55.6467 86.631 57.1429 86.631 58.9879C86.631 60.8329 85.903 62.329 84.997 62.329L84.976 62.3231ZM76.411 62.264C76.411 62.264 73.6551 62.3172 73.6119 60.419C73.5688 58.5207 73.558 54.2157 73.6119 52.7787C73.6712 50.2891 76.309 50.4133 76.309 50.4133V45.919H68.3696L64.7398 53.2873L61.0832 45.9071H53.1549V50.4014C53.1549 50.4014 55.8516 50.3068 55.9163 52.7669C55.9541 54.2038 55.9163 58.5089 55.9163 60.4071C55.9163 62.3054 53.0363 62.264 53.0363 62.264V63.5354L63.1003 63.4822V62.3704C63.1003 62.3704 61.7519 62.3409 61.7519 61.0577V58.4024L64.7237 62.5419L67.7008 58.4024V61.0813C67.7008 62.3527 66.3524 62.3941 66.3524 62.3941V63.4881L76.416 63.4408L76.411 62.264ZM53.0093 67.0303L63.0787 66.9771V68.0001H53.0147L53.0093 67.0303ZM53.0093 63.9967L63.0733 63.9435V64.9961L53.0039 65.0434L53.0093 63.9967ZM53.0093 65.5105L63.0787 65.4632V66.5158L53.0093 66.5632V65.5105ZM76.411 64.9192L66.3471 64.9606V63.908L76.411 63.8607V64.9192ZM76.411 66.9002V67.9942H66.3578V66.9948L76.411 66.9002ZM76.411 66.433L66.3417 66.4804V65.4277L76.411 65.3923V66.433ZM102.747 63.7365L94.689 63.7779V64.8305L102.736 64.7891L102.747 63.7365ZM102.747 66.303L94.695 66.3444V65.2917L102.741 65.2503L102.747 66.303ZM102.747 66.7701V67.7991H94.711V66.8115L102.747 66.7701ZM102.747 63.2634L94.689 63.3107V62.2699C94.986 62.2561 95.266 62.1141 95.468 61.8748C95.67 61.6356 95.778 61.3184 95.768 60.9926V57.1784C95.774 57.0168 95.75 56.8556 95.699 56.7039C95.648 56.5523 95.57 56.4131 95.47 56.2945C95.37 56.1759 95.249 56.08 95.115 56.0125C94.981 55.945 94.836 55.9071 94.689 55.901V51.5191H101.307V53.2932C103.874 50.3364 108.593 50.7563 108.566 56.6107V58.9761H104.111V58.0003C104.111 55.215 101.711 55.2919 101.711 57.8584V61.1345C101.701 61.4604 101.809 61.7775 102.011 62.0167C102.213 62.256 102.493 62.398 102.79 62.4118L102.747 63.2634ZM165.865 43.932C165.856 43.8764 165.84 43.8226 165.817 43.7724C162.119 46.2908 158.291 48.5694 154.35 50.5966L154.771 51.4718C158.629 49.4685 162.376 47.2195 165.995 44.7363C165.978 44.4638 165.935 44.1942 165.865 43.932ZM165.833 46.3625C162.446 48.6723 158.945 50.7767 155.348 52.6663L154.949 51.8621C158.742 49.8954 162.43 47.694 165.995 45.2685V45.3454C165.974 45.6859 165.92 46.0229 165.833 46.3507V46.3625ZM158.444 47.8586C157.049 48.6471 155.611 49.4237 154.129 50.1885L153.622 49.1419C153.622 49.1419 157.101 47.1372 157.705 46.7764C157.86 47.1198 158.05 47.4432 158.271 47.7403L158.444 47.8586ZM165.66 43.3407C164.01 44.4702 162.273 45.5878 160.466 46.67C160.459 46.516 160.418 46.3661 160.348 46.2324C159.949 45.4636 159.49 45.2567 156.572 46.3093C155.715 46.6227 153.029 47.3619 151.287 45.3808C150.91 44.9075 150.599 44.3754 150.365 43.8019C149.167 40.8984 151.335 38.4797 152.732 37.5631C153.374 37.1255 159.652 33.6188 159.652 33.6188L161.82 38.0185C161.82 38.0185 158.045 40.2124 157.425 40.5554C157.301 40.4076 157.155 39.964 156.885 39.8694C156.243 39.6388 154.987 40.4253 155.008 41.0521C155.019 41.2833 155.097 41.5047 155.229 41.6849C155.483 41.9096 155.99 42.0574 157.608 41.3892C163.406 39.0238 164.986 41.5962 165.66 43.3407ZM165.601 47.0721L165.563 47.1845C164.991 48.4005 164.083 49.3876 162.969 50.0052C162.316 50.3955 157.376 53.2695 156.006 54.0383L155.553 53.0921C158.995 51.2713 162.347 49.254 165.596 47.0485L165.601 47.0721ZM137.982 60.2238C140.567 59.321 143.098 58.3473 145.575 57.3025L145.268 56.4273C142.787 57.4602 140.249 58.4162 137.653 59.2954L137.982 60.2238ZM153.266 53.7189C151.188 54.7715 149.045 55.7788 146.837 56.7408L146.519 55.8655C148.734 54.9233 150.881 53.922 152.959 52.8615L153.266 53.7189ZM153.417 54.1565L153.719 55.0081C152.614 55.6349 148.407 57.5568 147.323 58.0772L147.005 57.202C149.194 56.2243 151.33 55.2072 153.412 54.1506L153.417 54.1565ZM137.146 57.8998C139.742 57.0246 142.291 56.0607 144.793 55.0081L145.122 55.9602C142.638 56.997 140.094 57.9649 137.491 58.8637L137.146 57.8998ZM152.333 51.0815C150.244 52.1223 148.087 53.1079 145.861 54.0383L143.909 48.5801C143.111 46.2856 140.797 47.1017 141.654 49.5322C142.021 50.5611 142.415 51.6196 142.733 52.6013C142.846 52.9033 143.059 53.1479 143.328 53.2869C143.598 53.4259 143.905 53.4492 144.189 53.3523L144.615 54.535C142.124 55.5758 139.562 56.5397 136.968 57.4267L136.622 56.4983C136.873 56.3165 137.064 56.0508 137.166 55.7408C137.268 55.4308 137.276 55.0929 137.189 54.7775C136.903 53.9023 136.315 52.2879 135.991 51.3654C135.506 50.0348 134.519 50.4724 134.519 50.4724L133.079 46.3802L139.238 43.7487C139.238 43.7487 139.831 45.369 139.831 45.4282C140.679 43.795 142.081 42.5945 143.731 42.087C147.458 41.0994 148.482 44.0385 150.473 49.2187C150.513 49.3737 150.585 49.5167 150.683 49.6375C150.78 49.7583 150.901 49.8538 151.036 49.9172C151.171 49.9806 151.317 50.0103 151.464 50.004C151.611 49.9977 151.755 49.9557 151.886 49.881L152.333 51.0815ZM152.819 52.4416C150.731 53.4824 148.579 54.4818 146.347 55.4339L146.012 54.4936C148.22 53.5474 150.377 52.5618 152.484 51.5368L152.819 52.4416ZM138.133 60.6319C140.716 59.7567 143.256 58.7514 145.726 57.7106L146.028 58.5858C145.327 58.8992 139.168 61.3592 138.478 61.6076L138.133 60.6319ZM127.594 60.2416C125.645 60.7304 123.689 61.168 121.726 61.5544C121.699 61.4716 121.672 61.3829 121.65 61.3119C121.141 59.4892 120.721 57.6375 120.394 55.765C119.132 47.4861 131.801 45.712 133.122 51.2648L134.174 55.4693L126.704 57.5568L127.216 59.7034H127.249C127.305 59.9267 127.426 60.1239 127.594 60.2652V60.2416ZM126.267 55.5462L128.667 54.8898C128.667 54.8898 128.354 53.4114 128.209 52.9502C127.767 51.5546 125.577 52.1814 125.83 53.5829C125.922 54.1329 126.267 55.5699 126.267 55.5699V55.5462ZM134.487 57.1547L129.498 58.5148L129.767 59.6975C131.432 59.2441 133.088 58.7553 134.735 58.231L134.487 57.1547ZM135.172 60.1115C131.046 61.4361 126.861 62.5257 122.632 63.3758C122.888 63.7102 123.195 63.9942 123.538 64.2155C127.535 63.3757 131.499 62.3113 135.377 61.0577L135.172 60.1115ZM134.837 58.6626C130.58 60.0267 126.259 61.14 121.893 61.9979C122.02 62.3324 122.175 62.6531 122.357 62.9559C126.647 62.1038 130.894 61.0063 135.08 59.6679L134.837 58.6626ZM124.131 64.5762C124.968 65.0237 125.919 65.1467 126.828 64.9251C128.829 64.5466 133.624 63.2102 135.722 62.5301L135.484 61.5189C131.774 62.743 127.966 63.7779 124.131 64.5999V64.5762Z" fill="#898989"/>
</svg>
