<svg width="238" height="99" viewBox="0 0 238 99" fill="none" xmlns="http://www.w3.org/2000/svg">
<path d="M184.542 42.0058C183.777 39.1283 177.827 32.5271 173.492 27.1953C173.407 27.1107 173.152 26.6875 172.642 26.6875C172.217 26.6875 171.877 27.1107 172.047 27.4492C172.217 27.7877 176.382 36.4201 175.617 39.213C174.852 42.0905 171.027 41.498 170.432 41.498C170.092 41.498 170.347 41.7519 170.687 42.0905C172.812 43.9523 174.172 46.5759 174.172 49.9612V52.5001C174.172 52.5848 174.172 52.5848 174.257 52.5848C179.102 52.1616 186.497 49.1995 184.542 42.0058ZM165.757 58.6782C165.757 61.1326 162.442 62.4867 160.317 62.4867C158.022 62.4867 154.792 61.1326 154.792 58.6782V50.0458C154.792 47.5915 158.022 46.4913 160.317 46.4913C162.442 46.4913 165.757 47.6761 165.757 50.0458V58.6782ZM160.317 41.0749C155.217 41.1595 149.267 44.037 149.267 49.9612V59.0168C149.267 65.0256 155.217 67.9031 160.317 67.9031C165.332 67.8185 171.282 65.0256 171.282 59.0168V50.0458C171.282 44.1216 165.332 41.1595 160.317 41.0749ZM127.337 58.6782C127.337 61.1326 124.022 62.4867 121.897 62.4867C119.602 62.4867 116.372 61.1326 116.372 58.6782V50.0458C116.372 47.5915 119.602 46.4913 121.897 46.4913C124.022 46.4913 127.337 47.6761 127.337 50.0458V58.6782ZM121.812 41.0749C116.712 41.1595 110.762 44.037 110.762 49.9612V59.0168C110.762 65.0256 116.712 67.9031 121.812 67.9031C126.827 67.8185 132.777 65.0256 132.777 59.0168V50.0458C132.777 44.1216 126.827 41.1595 121.812 41.0749ZM66.3926 42.0905C66.7326 41.7519 66.9876 41.498 66.6476 41.498C66.0527 41.498 62.2277 42.0905 61.4627 39.213C60.6977 36.3355 64.8627 27.7877 65.0327 27.4492C65.1177 27.1107 64.8627 26.6875 64.3527 26.6875C63.9277 26.6875 63.5877 27.1953 63.5027 27.1953C59.2527 32.5271 53.2177 39.1283 52.4527 42.0058C50.4977 49.1995 58.0627 52.1616 62.8227 52.6694C62.9077 52.6694 62.9077 52.5848 62.9077 52.5848V50.0458C62.9927 46.5759 64.2677 43.9523 66.3926 42.0905ZM110.422 43.106C106.342 42.0058 103.368 41.5827 98.948 41.5827C94.613 41.5827 91.553 42.0058 87.473 43.106C87.303 43.1907 87.218 43.3599 87.303 43.4446C88.663 44.6294 89.258 46.1528 89.513 47.8454C91.723 47.3376 93.763 46.9991 96.143 46.8298V67.7338C96.143 67.8185 96.228 67.8185 96.313 67.8185H101.583C101.668 67.8185 101.753 67.8185 101.753 67.7338V46.8298C104.047 46.9991 105.917 47.253 108.127 47.8454C108.467 46.1528 109.147 44.5448 110.592 43.4446C110.592 43.2753 110.507 43.106 110.422 43.106ZM149.437 41.3288C149.012 41.2441 147.907 41.0749 146.887 41.1595C141.872 41.3288 136.177 44.2909 136.177 50.0458V67.9031C136.177 67.9877 136.262 67.9877 136.347 67.9877H141.617C141.702 67.9877 141.787 67.9877 141.787 67.9031V50.0458C141.787 48.0993 144.167 46.9991 146.122 46.5759C146.717 44.714 147.822 43.2753 149.522 41.9212C149.777 41.6673 149.692 41.3288 149.437 41.3288ZM81.6076 51.5692C81.6076 51.6538 81.6076 51.6538 81.5226 51.7385C81.5226 51.8231 81.4376 51.8231 81.3526 51.8231H71.3226V50.0458C71.3226 47.5915 74.2976 46.4067 76.5926 46.4067C78.8026 46.4067 81.6076 47.5915 81.6076 50.0458V51.5692ZM76.5926 40.9056C71.4076 40.9902 65.7127 43.9523 65.7127 49.9612V59.1014C65.7127 65.1949 71.4076 68.0723 76.5926 68.157C80.3326 68.157 84.4976 66.6336 86.538 63.333C86.623 63.2483 86.538 63.0791 86.453 62.9945C84.6676 61.9789 83.6476 61.3865 81.8626 60.4555C81.7776 60.4555 81.7776 60.4555 81.6926 60.5401C80.7576 62.1481 78.2926 62.9945 76.5926 62.9945C74.2976 62.9945 71.3226 61.5557 71.3226 59.1014V56.3932H85.688C86.453 56.3932 87.048 55.8008 87.048 55.0391V50.0458C87.048 43.9523 81.6926 40.9902 76.5926 40.9056Z" fill="#898989"/>
</svg>
