<svg width="241" height="98" viewBox="0 0 241 98" fill="none" xmlns="http://www.w3.org/2000/svg">
<path d="M55.418 40.0863C57.0144 40.1834 58.6129 40.1007 60.2104 40.1307C60.4677 40.1359 60.4728 39.986 60.4718 39.799C60.4677 39.1811 60.4677 38.5632 60.4718 37.9453C60.4987 32.8966 63.7649 29.1148 68.7609 28.3388C69.6299 28.2034 70.4999 28.1311 71.3802 28.1352C73.3239 28.1424 75.2685 28.1466 77.2121 28.129C77.5769 28.1259 77.7143 28.1858 77.7102 28.5961C77.6864 30.7587 77.6875 32.9214 77.7102 35.0841C77.7143 35.4933 77.5769 35.5573 77.2101 35.5542C75.5589 35.5377 73.9066 35.5305 72.2554 35.5573C70.7675 35.5821 69.6423 36.4439 69.3219 37.7634C69.1494 38.4733 69.2661 39.1997 69.2382 39.9178C69.232 40.0708 69.3106 40.1317 69.4583 40.1276C69.5958 40.1235 69.7332 40.1286 69.8716 40.1286C75.2045 40.1286 80.5373 40.1348 85.8701 40.1183C86.3371 40.1173 86.4704 40.2289 86.4694 40.7093C86.4539 49.4117 86.4549 58.1151 86.4673 66.8175C86.4673 67.2494 86.395 67.3982 85.9145 67.393C83.352 67.3641 80.7884 67.3693 78.2248 67.3899C77.798 67.393 77.6864 67.2918 77.6875 66.8588C77.703 60.6105 77.6926 54.3622 77.7081 48.1149C77.7092 47.653 77.6048 47.5105 77.1202 47.5156C74.6775 47.5425 72.2348 47.5404 69.7921 47.5156C69.3405 47.5115 69.2227 47.6189 69.2238 48.0777C69.2403 54.326 69.23 60.5744 69.2455 66.8216C69.2465 67.2628 69.1587 67.3961 68.6885 67.391C66.126 67.3641 63.5624 67.3682 60.9988 67.3889C60.5782 67.392 60.4584 67.3011 60.4594 66.863C60.4749 60.6322 60.4615 54.4015 60.4852 48.1697C60.4873 47.6086 60.3168 47.5043 59.8022 47.5136C58.3411 47.5404 56.8801 47.5084 55.418 47.5001V40.0832V40.0863Z" fill="#898989"/>
<path d="M180.745 67.9998C179.712 67.6102 178.761 67.1039 178.004 66.269C176.444 64.5475 176.132 62.0759 177.245 60.0589C178.362 58.0337 180.717 56.8433 182.861 57.2194C185.217 57.6317 187.089 59.4544 187.462 61.6957C187.902 64.3398 186.384 66.9014 183.847 67.7983C183.671 67.8603 183.499 67.9316 183.326 67.9998H180.745Z" fill="#898989"/>
<path d="M167.43 44.0036C167.553 43.9664 167.572 43.8548 167.613 43.768C168.787 41.317 170.743 40.1215 173.455 40.1298C174.418 40.1329 175.382 40.137 176.345 40.1215C176.632 40.1163 176.731 40.1918 176.724 40.4935C176.67 42.7068 176.625 44.9211 176.598 47.1355C176.593 47.463 176.478 47.5354 176.174 47.5323C174.849 47.5178 173.525 47.524 172.2 47.5271C169.746 47.5333 168.209 48.7619 167.639 51.1581C167.419 52.0839 167.364 53.0232 167.363 53.9686C167.359 58.2599 167.356 62.5522 167.37 66.8434C167.371 67.2557 167.293 67.3932 166.845 67.3901C164.214 67.3663 161.581 67.3684 158.949 67.389C158.535 67.3921 158.445 67.2743 158.446 66.8775C158.458 60.6292 158.448 54.3799 158.466 48.1316C158.467 47.6366 158.354 47.4909 157.851 47.5147C156.906 47.5591 155.959 47.5261 155.012 47.5281C152.504 47.5323 150.96 48.7743 150.397 51.2232C150.193 52.117 150.152 53.0221 150.152 53.9325C150.152 58.2413 150.144 62.5501 150.162 66.8589C150.164 67.2971 150.038 67.3921 149.618 67.389C146.987 67.3694 144.354 67.3684 141.722 67.389C141.302 67.3921 141.219 67.2661 141.219 66.8724C141.23 58.1349 141.23 49.3963 141.219 40.6588C141.219 40.2331 141.33 40.1153 141.759 40.1184C144.374 40.138 146.99 40.1422 149.604 40.1163C150.08 40.1112 150.174 40.262 150.162 40.6981C150.131 41.7892 150.152 42.8814 150.152 43.9767C150.341 43.9819 150.348 43.8558 150.385 43.7763C151.586 41.2561 153.611 40.107 156.377 40.1225C159.887 40.1432 163.396 40.1329 166.906 40.1194C167.269 40.1184 167.375 40.2228 167.367 40.5824C167.344 41.5598 167.356 42.5394 167.363 43.5179C167.364 43.6781 167.296 43.8579 167.43 44.0036Z" fill="#898989"/>
<path d="M129.922 55.8334C127.033 55.8334 124.143 55.8396 121.254 55.8262C120.854 55.8241 120.738 55.8799 120.83 56.3253C121.494 59.5429 123.886 60.7457 126.829 60.539C127.838 60.4677 128.787 60.195 129.608 59.5667C130.039 59.2371 130.433 58.8548 130.618 58.3536C130.787 57.8948 131.025 57.9351 131.392 58.0416C133.65 58.6925 135.909 59.3404 138.176 59.9573C138.624 60.0792 138.703 60.2063 138.498 60.6331C137.113 63.5118 134.904 65.5112 131.94 66.6355C128.254 68.0335 124.502 68.0893 120.801 66.7192C116.995 65.3108 114.453 62.5695 113.087 58.7928C111.439 54.236 111.849 49.8 114.323 45.6369C116.455 42.0493 119.761 40.2183 123.87 39.7823C126.489 39.5043 129.066 39.7327 131.516 40.735C135.632 42.4203 137.941 45.6121 138.933 49.8455C139.355 51.6507 139.369 53.4827 139.247 55.322C139.222 55.6929 139.116 55.8469 138.694 55.8438C135.77 55.8221 132.847 55.8334 129.922 55.8334ZM125.667 50.6349C127.198 50.6349 128.728 50.6267 130.258 50.6422C130.593 50.6453 130.726 50.5688 130.656 50.2144C130.504 49.4487 130.243 48.7358 129.784 48.0951C128.269 45.981 125.301 45.8384 123.383 46.6371C121.807 47.2933 121.204 48.6707 120.834 50.2113C120.745 50.5822 120.836 50.6453 121.181 50.6422C122.677 50.6287 124.172 50.636 125.668 50.636L125.667 50.6349Z" fill="#898989"/>
<path d="M86.8945 40.128C88.932 40.128 90.891 40.128 92.849 40.128C93.657 40.128 94.468 40.1611 95.273 40.1146C95.716 40.0898 95.857 40.2665 95.971 40.6509C97.442 45.6437 98.928 50.6325 100.41 55.6222C100.444 55.7359 100.446 55.8619 100.592 55.9818C101.022 54.5538 101.446 53.1475 101.869 51.7391C102.972 48.0658 104.077 44.3934 105.166 40.7149C105.266 40.3781 105.401 40.2696 105.76 40.2717C108.409 40.2903 111.058 40.2882 113.706 40.2737C114.097 40.2717 114.211 40.3161 114.058 40.7377C110.88 49.4927 107.714 58.253 104.552 67.0142C104.459 67.2715 104.353 67.3883 104.049 67.3862C101.727 67.3707 99.406 67.3666 97.084 67.3883C96.713 67.3914 96.626 67.2075 96.529 66.9347C93.804 59.3441 91.076 51.7556 88.348 44.1672C87.874 42.8487 87.4 41.5292 86.8945 40.126V40.128Z" fill="#898989"/>
</svg>
