<svg width="271" height="98" viewBox="0 0 271 98" fill="none" xmlns="http://www.w3.org/2000/svg">
<path d="M153.227 66.8298C154.131 64.9432 155.011 63.1016 155.893 61.2627C156.63 59.7276 157.382 58.2016 158.096 56.6562C158.264 56.2956 158.452 56.1437 158.859 56.1476C160.682 56.1669 162.505 56.1617 164.328 56.1514C164.744 56.1488 164.95 56.257 164.949 56.7271C164.936 61.537 164.941 66.3469 164.939 71.1581C164.939 71.2611 164.919 71.3641 164.905 71.5148H160.953V60.1011C160.9 60.0921 160.847 60.0818 160.796 60.0727C160.507 60.651 160.219 61.2292 159.929 61.8061C158.39 64.8685 156.842 67.927 155.321 70.9984C155.114 71.4169 154.883 71.6011 154.399 71.5779C153.565 71.5367 152.726 71.5431 151.891 71.5766C151.462 71.5934 151.243 71.4388 151.055 71.0615C149.328 67.5909 147.583 64.1306 145.842 60.6677C145.74 60.4668 145.628 60.2711 145.413 60.1011V71.5174H141.429C141.417 71.292 141.396 71.086 141.396 70.8786C141.395 66.2168 141.407 61.5563 141.381 56.8945C141.377 56.2892 141.573 56.136 142.147 56.1463C143.862 56.1759 145.579 56.1785 147.294 56.145C147.857 56.1334 148.123 56.3484 148.353 56.8378C149.901 60.1294 151.481 63.4056 153.052 66.6869C153.068 66.7203 153.114 66.7397 153.227 66.8324V66.8298Z" fill="#898989"/>
<path d="M216.681 56.6504V60.3476C215.976 60.3476 215.281 60.3464 214.586 60.3476C210.874 60.3554 207.163 60.3592 203.451 60.3824C203.076 60.385 202.659 60.4262 202.345 60.5988C202.121 60.7211 201.925 61.0971 201.927 61.3586C201.927 61.5891 202.17 61.9085 202.394 62.0269C202.677 62.1776 203.049 62.2124 203.383 62.215C206.429 62.2278 209.473 62.2098 212.519 62.233C213.177 62.2381 213.842 62.3218 214.489 62.4519C215.616 62.6786 216.432 63.3456 216.834 64.4184C217.447 66.0513 217.423 67.7151 216.851 69.3506C216.49 70.3834 215.724 71.0492 214.651 71.3068C214.094 71.4407 213.513 71.5528 212.942 71.5553C208.225 71.5746 203.507 71.5669 198.789 71.5656C198.622 71.5656 198.453 71.5437 198.254 71.5296V67.8439C198.479 67.8439 198.703 67.8439 198.929 67.8439C203.065 67.84 207.201 67.84 211.339 67.8272C211.72 67.8272 212.132 67.8169 212.471 67.6739C212.723 67.5683 213.029 67.2451 213.039 67.0081C213.05 66.7338 212.828 66.3629 212.591 66.1904C212.362 66.023 211.985 66.0049 211.674 66.0036C208.736 65.9908 205.798 66.0127 202.86 65.9856C202.073 65.9779 201.276 65.9032 200.506 65.7461C199.207 65.4795 198.332 64.6888 197.988 63.3933C197.616 61.9883 197.61 60.5614 197.99 59.1706C198.439 57.5248 199.825 56.6594 201.861 56.6555C206.471 56.6465 211.081 56.653 215.693 56.653C216.009 56.653 216.325 56.653 216.682 56.653L216.681 56.6504Z" fill="#898989"/>
<path d="M53.7638 71.5173C53.7522 71.2855 53.7316 71.0782 53.7316 70.8721C53.7303 66.2103 53.7432 61.5485 53.7149 56.8867C53.711 56.2711 53.9222 56.1449 54.4863 56.1475C58.369 56.1668 62.253 56.1205 66.1344 56.181C67.2767 56.199 68.4576 56.36 69.5457 56.6948C71.5779 57.322 72.7266 58.848 73.2173 60.8634C73.7349 62.9896 73.6937 65.1337 73.2198 67.2522C72.5875 70.0776 70.8348 71.5173 67.8845 71.5521C63.3154 71.6062 58.7463 71.5663 54.1772 71.5637C54.0536 71.5637 53.93 71.5366 53.7651 71.5173H53.7638ZM57.841 67.8239C60.7849 67.8239 63.6876 67.8394 66.5903 67.8175C68.088 67.8059 68.9379 67.0268 69.077 65.5329C69.1568 64.6701 69.1556 63.7957 69.1362 62.9277C69.0937 61.0141 68.3288 60.2916 66.401 60.2903C63.7661 60.289 61.1326 60.2903 58.4978 60.2903H57.841V67.8239Z" fill="#898989"/>
<path d="M110.886 67.3448V66.6713C110.886 63.3951 110.897 60.1177 110.876 56.8415C110.872 56.32 111.015 56.1242 111.559 56.1461C112.5 56.1835 113.445 56.1629 114.388 56.1551C114.728 56.1526 114.885 56.2517 114.885 56.6303C114.871 61.5561 114.872 66.4807 114.868 71.4065C114.868 71.4245 114.85 71.4425 114.781 71.5675C114.51 71.5675 114.178 71.5675 113.846 71.5675C112.452 71.5675 111.058 71.5456 109.666 71.579C109.183 71.5906 108.884 71.4348 108.595 71.0575C105.999 67.6526 103.385 64.2618 100.775 60.8685C100.652 60.7101 100.518 60.5594 100.279 60.2709V71.5095H96.2557C96.2557 71.2648 96.2557 71.0369 96.2557 70.8102C96.2557 66.1935 96.2686 61.5767 96.2403 56.9613C96.2364 56.2955 96.4502 56.1268 97.0838 56.1448C98.5197 56.1847 99.9569 56.1732 101.393 56.1487C101.885 56.141 102.216 56.2813 102.526 56.6896C105.157 60.1486 107.812 63.5883 110.461 67.0331C110.55 67.149 110.64 67.2636 110.731 67.3795C110.783 67.368 110.836 67.3577 110.889 67.3461L110.886 67.3448Z" fill="#898989"/>
<path d="M139.744 71.56C138.182 71.56 136.75 71.5716 135.317 71.5433C135.157 71.5407 134.95 71.3463 134.854 71.1879C134.406 70.4397 134.006 69.6631 133.546 68.9226C133.437 68.7475 133.162 68.5711 132.964 68.5698C129.835 68.5479 126.704 68.5479 123.573 68.5698C123.378 68.5711 123.11 68.7591 123 68.9355C122.55 69.6567 122.156 70.4126 121.719 71.1428C121.621 71.3076 121.434 71.5343 121.285 71.5382C119.835 71.5678 118.384 71.5562 116.809 71.5562C117.476 70.3663 118.084 69.2768 118.697 68.1912C120.833 64.4128 122.984 60.6434 125.098 56.8534C125.399 56.3138 125.736 56.1142 126.354 56.1387C127.66 56.1889 128.971 56.1864 130.276 56.1387C130.856 56.1181 131.155 56.3293 131.426 56.8135C133.787 61.0259 136.173 65.2254 138.549 69.4287C138.924 70.092 139.295 70.759 139.743 71.56H139.744ZM125.36 64.7309H131.201C130.213 62.9885 129.272 61.3298 128.273 59.5668C127.269 61.344 126.338 62.9962 125.36 64.7309Z" fill="#898989"/>
<path d="M195.514 67.8433C195.514 69.0319 195.526 70.1497 195.495 71.2662C195.493 71.3706 195.212 71.5457 195.056 71.5521C194.285 71.583 193.512 71.5676 192.741 71.5676C189.524 71.5676 186.307 71.5779 183.091 71.565C179.712 71.5521 177.854 70.0789 177.282 66.8246C176.889 64.5929 176.827 62.3392 177.595 60.1474C178.31 58.1063 179.767 56.8687 181.886 56.4463C182.761 56.2712 183.668 56.1784 184.562 56.1694C187.95 56.1385 191.338 56.1707 194.726 56.1437C195.338 56.1385 195.565 56.3072 195.532 56.9266C195.486 57.8358 195.477 58.7515 195.522 59.6606C195.548 60.1835 195.378 60.3045 194.878 60.302C191.297 60.2826 187.716 60.2917 184.134 60.2929C182.321 60.2929 181.581 60.9381 181.47 62.7372C181.412 63.6876 181.413 64.656 181.53 65.5974C181.725 67.153 182.546 67.8214 184.132 67.8278C187.647 67.8433 191.162 67.8394 194.677 67.8433C194.929 67.8433 195.181 67.8433 195.516 67.8433H195.514Z" fill="#898989"/>
<path d="M95.1321 56.2057C93.221 58.3692 91.431 60.3962 89.6384 62.4232C88.6082 63.5886 87.5612 64.7399 86.5528 65.9247C86.3674 66.1436 86.2541 66.4888 86.2476 66.7785C86.2154 68.1178 86.2348 69.4584 86.2322 70.799C86.2322 71.0269 86.2116 71.2549 86.2 71.524H81.8382C81.8382 70.9484 81.8382 70.3818 81.8382 69.8164C81.8382 68.7746 81.8588 67.7315 81.8241 66.6896C81.815 66.4231 81.6953 66.1076 81.5188 65.9067C78.7939 62.7979 76.0522 59.7059 73.3143 56.6088C73.2332 56.5161 73.1611 56.4156 73.0078 56.2199C73.2989 56.1928 73.4959 56.1594 73.6929 56.1581C75.1082 56.1529 76.5222 56.1684 77.9375 56.1478C78.365 56.1413 78.6393 56.292 78.9111 56.6217C80.6032 58.6757 82.3211 60.7091 84.1949 62.946C84.3043 62.7335 84.3649 62.5442 84.4808 62.4C86.0377 60.4812 87.6088 58.574 89.1568 56.6487C89.4349 56.3036 89.7182 56.1349 90.178 56.1439C91.5714 56.1709 92.9648 56.1516 94.3582 56.1555C94.5629 56.1555 94.7677 56.18 95.1334 56.2044L95.1321 56.2057Z" fill="#898989"/>
<path d="M173.913 71.5242H169.662C169.65 71.2769 169.633 71.0709 169.633 70.8635C169.632 66.2236 169.642 61.5837 169.619 56.9437C169.617 56.3333 169.785 56.1157 170.411 56.144C171.396 56.1891 172.384 56.1633 173.371 56.153C173.757 56.1492 173.956 56.2535 173.956 56.6939C173.951 61.5618 173.962 66.4296 173.965 71.2975C173.965 71.358 173.94 71.4173 173.915 71.5229L173.913 71.5242Z" fill="#898989"/>
<path d="M80.7818 51.2349C80.492 51.2349 80.2602 51.2349 80.0284 51.2349C75.7182 51.2349 71.4066 51.2465 67.0964 51.2297C65.014 51.222 63.2021 50.6077 62.0637 48.7263C61.4224 47.6677 61.17 46.4778 61.0592 45.2634C60.9073 43.5841 60.8815 41.9035 61.3876 40.2693C62.226 37.5688 64.0881 36.0338 66.9341 35.9591C71.368 35.8419 75.8057 35.8625 80.2422 35.8264C80.5332 35.8238 80.8166 35.8341 80.814 36.2437C80.8101 37.4516 80.8127 38.6596 80.8127 39.959C80.5036 39.959 80.2538 39.959 80.0052 39.959C76.0157 39.959 72.0274 39.959 68.0378 39.959C66.3572 39.959 65.5922 40.5526 65.4532 42.2126C65.3553 43.3832 65.3746 44.5911 65.551 45.7515C65.7133 46.8216 66.6238 47.4655 67.7261 47.4758C70.6353 47.5041 73.5457 47.49 76.4561 47.4913C76.5166 47.4913 76.5759 47.4604 76.6815 47.432V45.6652C75.977 45.6652 75.2765 45.6652 74.5772 45.6652C73.2907 45.6652 72.0029 45.6793 70.7177 45.6497C70.5374 45.6459 70.2103 45.4347 70.2064 45.311C70.1665 44.1456 70.1832 42.9788 70.1832 41.7747C70.3996 41.7528 70.5631 41.7232 70.7267 41.7232C73.8792 41.7207 77.0317 41.7284 80.1843 41.7129C80.644 41.7104 80.8294 41.816 80.8256 42.313C80.805 45.1217 80.8153 47.9317 80.814 50.7404C80.814 50.8653 80.7985 50.9902 80.7831 51.2375L80.7818 51.2349Z" fill="#898989"/>
<path d="M84.6887 51.1746V50.4947C84.6887 45.8535 84.699 41.2123 84.6758 36.571C84.6732 35.9864 84.8355 35.81 85.4279 35.8125C90.6847 35.8318 95.9402 35.8318 101.197 35.8125C101.782 35.81 101.983 35.9684 101.952 36.5672C101.9 37.5845 101.91 38.607 101.95 39.6257C101.971 40.1576 101.805 40.3121 101.268 40.3082C97.4494 40.2876 93.6298 40.2966 89.8115 40.2966C89.5591 40.2966 89.3054 40.2966 89.0672 40.2966C89.0208 40.4164 88.9822 40.4731 88.9783 40.531C88.9208 41.4685 89.3664 41.9373 90.3151 41.9373C94.1527 41.9373 97.9903 41.9373 101.886 41.9373V45.6268H89.017V47.48H101.907V51.1721H84.6887V51.1746Z" fill="#898989"/>
<path d="M128.84 51.2342C128.84 50.9225 128.84 50.7139 128.84 50.504C128.84 45.8847 128.852 41.2641 128.826 36.6447C128.822 36.0202 128.956 35.8038 129.632 35.8077C134.845 35.836 140.058 35.8334 145.271 35.8102C145.92 35.8077 146.143 35.9931 146.108 36.6447C146.058 37.6003 146.061 38.5623 146.108 39.5178C146.138 40.1166 145.977 40.3188 145.336 40.3137C141.539 40.2828 137.742 40.2982 133.944 40.2982C133.693 40.2982 133.44 40.2982 133.155 40.2982V41.8886H146.085C146.085 43.0966 146.101 44.2389 146.06 45.3773C146.056 45.479 145.682 45.6477 145.479 45.6503C143.762 45.6722 142.047 45.6632 140.33 45.6632C138.185 45.6632 136.039 45.6632 133.894 45.6632C133.663 45.6632 133.431 45.6632 133.16 45.6632V47.4828H146.085C146.085 48.6882 146.093 49.8292 146.07 50.9676C146.069 51.0577 145.85 51.1955 145.717 51.2187C145.466 51.2599 145.204 51.2342 144.947 51.2342C139.883 51.2342 134.821 51.2342 129.757 51.2342C129.482 51.2342 129.205 51.2342 128.842 51.2342H128.84Z" fill="#898989"/>
<path d="M169.551 51.2345C168.436 51.2345 167.448 51.1405 166.486 51.2564C164.894 51.4483 163.711 51.0516 162.87 49.59C162.357 48.6975 161.603 47.9352 160.914 47.1522C160.731 46.9448 160.391 46.7671 160.119 46.762C158.303 46.7272 156.486 46.7517 154.669 46.7375C154.26 46.7336 154.1 46.8586 154.109 47.2848C154.132 48.4297 154.103 49.5758 154.121 50.7207C154.126 51.0568 154.072 51.2422 153.679 51.2371C152.48 51.2242 151.28 51.2319 149.978 51.2319V50.5854C149.978 45.903 149.987 41.2219 149.965 36.5395C149.962 35.9883 150.096 35.808 150.673 35.8106C155.048 35.8325 159.424 35.7913 163.797 35.8453C164.807 35.8582 165.832 36.0849 166.813 36.3489C167.897 36.6399 168.617 37.4396 168.933 38.4918C169.458 40.2393 169.472 42.0293 168.947 43.7769C168.566 45.0441 167.654 45.8502 166.339 46.1735C166.156 46.2185 165.979 46.2803 165.743 46.3512C167.008 47.9725 168.232 49.5436 169.55 51.2332L169.551 51.2345ZM154.115 40.0899C154.115 40.8909 154.157 41.6314 154.103 42.3642C154.06 42.9334 154.293 43.0325 154.799 43.0287C157.434 43.0093 160.069 43.0235 162.704 43.0145C163.108 43.0132 163.521 42.9939 163.914 42.9089C164.869 42.7003 165.305 41.8606 164.945 40.9618C164.659 40.2483 163.989 40.1105 163.352 40.1041C160.315 40.0732 157.278 40.0899 154.117 40.0899H154.115Z" fill="#898989"/>
<path d="M109.818 40.1169V51.1867H105.872C105.86 50.964 105.841 50.7399 105.84 50.5158C105.838 45.8772 105.85 41.2372 105.824 36.5986C105.82 35.965 106.032 35.8002 106.634 35.8143C108.092 35.8491 109.551 35.8491 111.009 35.813C111.498 35.8015 111.797 35.974 112.078 36.3423C114.74 39.831 117.412 43.3119 120.083 46.7941C120.154 46.8868 120.239 46.9692 120.423 47.174C120.423 45.8772 120.423 44.7259 120.423 43.5746C120.424 41.196 120.436 38.8175 120.42 36.4389C120.418 36.0178 120.51 35.8092 120.98 35.8208C121.945 35.8427 122.911 35.8349 123.875 35.8246C124.265 35.8195 124.457 35.9341 124.456 36.3707C124.444 41.2012 124.448 46.0317 124.446 50.8622C124.446 50.964 124.415 51.0657 124.387 51.2383C123.176 51.2383 121.965 51.1185 120.788 51.2666C119.122 51.4765 118.125 50.8403 117.168 49.4933C114.975 46.4052 112.583 43.4548 110.27 40.4504C110.169 40.3203 110.059 40.198 109.952 40.0718C109.907 40.0872 109.862 40.1027 109.818 40.1181V40.1169Z" fill="#898989"/>
<path d="M192.98 51.2323C191.461 51.2323 190.027 51.2452 188.595 51.2143C188.423 51.2104 188.199 50.9979 188.094 50.8266C187.667 50.1171 187.304 49.3663 186.853 48.6722C186.713 48.4558 186.369 48.2459 186.116 48.2433C183.072 48.2137 180.028 48.2317 176.983 48.215C176.582 48.2124 176.368 48.3502 176.187 48.694C175.804 49.4294 175.384 50.1454 174.96 50.8588C174.873 51.0056 174.705 51.2091 174.573 51.2104C173.121 51.2362 171.67 51.2259 170.082 51.2259C170.472 50.5111 170.795 49.9007 171.135 49.298C173.567 45.0019 176.006 40.711 178.427 36.4111C178.664 35.9899 178.933 35.8006 179.435 35.8109C180.871 35.8431 182.308 35.8019 183.744 35.8406C184.004 35.847 184.378 36.0247 184.498 36.2359C187.279 41.0909 190.034 45.9601 192.792 50.8279C192.843 50.9181 192.879 51.0159 192.976 51.231L192.98 51.2323ZM178.623 44.3877H184.456C183.471 42.6491 182.534 40.9969 181.537 39.2391C180.551 40.9814 179.614 42.6337 178.623 44.3877Z" fill="#898989"/>
<path d="M194.715 51.1816C194.715 50.9163 194.715 50.6871 194.715 50.4592C194.715 45.863 194.715 41.2669 194.715 36.6707C194.715 35.8285 194.717 35.8272 195.565 35.8247C196.465 35.8221 197.368 35.8504 198.267 35.8144C198.829 35.7912 199.003 35.9831 198.999 36.5445C198.976 39.9495 198.999 43.3544 198.976 46.758C198.972 47.3247 199.101 47.5217 199.715 47.5165C202.967 47.4843 206.217 47.5011 209.469 47.4998C209.698 47.4998 209.928 47.4998 210.19 47.4998V51.1803H194.716L194.715 51.1816Z" fill="#898989"/>
</svg>
