<svg width="218" height="98" viewBox="0 0 218 98" fill="none" xmlns="http://www.w3.org/2000/svg">
<path d="M89.907 39.1579H108.481V44.7776H95.909V49.8681H107.733V55.4149H95.909V60.9616H109.119V66.5265H89.907V39.1579ZM163.2 41.2926C160.883 39.2491 157.927 38.4463 154.843 38.4463C149.497 38.4463 144.443 41.4933 144.443 47.2955C144.443 56.3819 157.233 53.6815 157.233 58.6991C157.233 60.6331 155.044 61.5454 153.073 61.5454C151.066 61.5454 149.078 60.5784 147.837 58.9728L143.567 63.6619C146.14 66.0521 149.224 67.0921 152.727 67.0921C158.346 67.0921 163.236 64.2093 163.236 58.1152C163.236 48.5727 150.683 51.7657 150.683 46.8028C150.683 44.7593 153.037 43.993 154.734 43.993C156.193 43.993 158.128 44.5769 159.076 45.7993L163.2 41.2926ZM114.557 53.4443C114.557 59.9216 117.458 64.8114 122.037 66.782C115.925 64.9756 112.203 59.6296 112.203 52.7875C112.203 45.9271 115.925 40.581 122.074 38.7747C117.239 40.9095 114.557 46.4014 114.557 53.4443ZM132.054 38.9389C137.911 40.873 141.433 46.1095 141.433 52.7875C141.433 59.5384 137.82 64.8297 131.854 66.709C136.579 64.5195 139.042 59.064 139.042 52.2401C139.042 45.7993 136.379 41.0007 132.054 38.9389ZM135.503 55.0864C135.12 62.2388 132.839 67.0374 126.891 67.0374C120.742 67.0374 118.425 62.2753 118.096 54.7763C118.954 58.7356 122.366 61.217 126.836 61.217C131.179 61.2353 134.536 58.8633 135.503 55.0864ZM126.873 38.5193C132.985 38.5193 135.174 43.2267 135.503 50.5615C134.554 46.7481 131.197 44.3579 126.818 44.3579C122.366 44.3579 118.954 46.8211 118.096 50.7622C118.461 43.4456 120.815 38.5193 126.873 38.5193ZM70.712 66.5265V65.7784H67.4278V40.1431L81.933 66.5265H83.192V39.9424H84.488V39.1579H78.868V39.9424H82.262V61.4542L69.7268 39.1579H64.4902V39.9424H66.5155V65.7784H64.4902V66.5265H70.712ZM60.6039 66.5265V65.7784H58.5239V39.9424H60.6039V39.1579H53.7617V39.9424H55.8235V65.7784H53.7617V66.5265H60.6039Z" fill="#898989"/>
</svg>
