<svg width="331" height="98" viewBox="0 0 331 98" fill="none" xmlns="http://www.w3.org/2000/svg">
<path d="M96.8623 70.8099C96.8623 70.5474 96.8623 70.3519 96.8623 70.1573C96.8623 64.8326 96.876 59.5079 96.8468 54.1832C96.8422 53.3873 96.7298 52.564 96.4996 51.8049C95.9824 50.1004 94.6238 49.1301 92.8467 49.1017C91.2797 49.0769 89.7118 49.0898 88.1439 49.0879C88.0407 49.0879 87.9383 49.1054 87.7949 49.1182V70.7668H76.6014C76.6014 70.5694 76.6014 70.3904 76.6014 70.2115C76.5995 64.6885 76.6169 59.1655 76.5749 53.6425C76.5694 52.8724 76.3802 52.0591 76.0842 51.3459C75.4775 49.8837 74.2651 49.1659 72.7109 49.109C71.2362 49.0549 69.7588 49.0897 68.2823 49.0861C68.1324 49.0861 67.9826 49.0861 67.7578 49.0861C67.8519 48.953 67.8949 48.8649 67.9616 48.8006C71.4911 45.3475 75.0198 41.8934 78.5576 38.4513C78.6919 38.321 78.9267 38.2274 79.114 38.2274C84.8218 38.2292 90.5296 38.1998 96.2364 38.2806C98.3936 38.3109 100.475 38.8763 102.379 39.9539C105.411 41.6704 107.068 44.3571 107.675 47.7202C107.887 48.897 107.97 50.1114 107.975 51.3092C108.004 57.6106 107.989 63.911 107.989 70.2124C107.989 70.809 107.987 70.8099 107.394 70.8099C104.076 70.8099 100.758 70.8099 97.4397 70.8099H96.8623Z" fill="#898989"/>
<path d="M136.463 65.951C135.451 65.951 134.523 65.962 133.596 65.9372C133.482 65.9345 133.338 65.7582 133.275 65.6288C133.22 65.5177 133.26 65.3599 133.26 65.2222C133.26 61.7892 133.281 58.3572 133.247 54.9243C133.239 54.0495 133.164 53.1482 132.934 52.3101C132.42 50.4294 130.934 49.3169 128.989 49.2003C125.929 49.0167 123.792 50.8938 123.577 53.9715C123.527 54.6856 123.52 55.4034 123.519 56.1194C123.512 59.1861 123.517 62.2519 123.515 65.3185C123.515 65.5122 123.498 65.7059 123.488 65.9244H120.371V46.8799H123.475V49.0176C123.505 49.0461 123.534 49.0745 123.564 49.103C125.129 47.169 127.127 46.2649 129.59 46.3787C132.037 46.4916 133.977 47.482 135.3 49.5831C135.748 49.1113 136.135 48.6376 136.588 48.2402C138.127 46.8927 139.956 46.3603 141.975 46.3732C146.041 46.3998 148.809 48.8506 149.353 52.9334C149.403 53.3097 149.432 53.6916 149.432 54.0716C149.438 57.8698 149.436 61.669 149.436 65.4672C149.436 65.6031 149.436 65.7389 149.436 65.9133H146.191C146.191 65.7215 146.191 65.5434 146.191 65.3644C146.191 61.7186 146.209 58.0718 146.175 54.4259C146.168 53.676 146.056 52.8994 145.834 52.1844C145.264 50.3486 143.754 49.293 141.84 49.1911C138.605 49.0204 136.536 51.1921 136.48 54.3745C136.416 58.035 136.463 61.6965 136.462 65.358C136.462 65.537 136.462 65.716 136.462 65.9501L136.463 65.951Z" fill="#898989"/>
<path d="M176.994 38.2394C177.977 38.2394 178.931 38.233 179.885 38.2505C179.971 38.2523 180.093 38.3918 180.129 38.4919C180.173 38.6139 180.144 38.7626 180.144 38.9003C180.144 42.3176 180.144 45.7341 180.144 49.1514V49.8196C180.335 49.6425 180.432 49.5635 180.516 49.4726C182.546 47.2798 185.063 46.271 188.029 46.4151C192.628 46.6373 196.289 49.9931 196.935 54.5541C197.42 57.9788 196.679 61.0537 194.196 63.5522C190.497 67.2734 184.123 67.49 180.409 63.3595C180.351 63.2952 180.28 63.2448 180.145 63.1273V65.9112H176.994V38.2394ZM193.794 56.2788C193.771 56.0283 193.744 55.6024 193.693 55.1801C192.971 49.1872 186.634 47.7305 182.939 50.564C180.432 52.487 179.601 55.1122 180.216 58.1614C181.354 63.8001 187.872 65.1889 191.508 62.0313C193.188 60.5728 193.747 58.6112 193.793 56.2788H193.794Z" fill="#898989"/>
<path d="M260.296 57.5696C260.45 58.1928 260.547 58.761 260.73 59.2998C261.724 62.2004 264.378 63.9802 267.471 63.9177C269.971 63.8673 271.979 62.8254 273.643 61.0172C273.744 60.907 273.848 60.7987 273.981 60.6583C274.618 61.2301 275.235 61.7846 275.875 62.3582C274.354 64.2592 272.507 65.5929 270.179 66.1675C267.157 66.9138 264.228 66.7164 261.513 65.0633C259.111 63.6002 257.714 61.4073 257.198 58.6711C256.651 55.7723 257.061 53.0141 258.757 50.5468C260.383 48.1813 262.672 46.8486 265.505 46.4851C268.045 46.1583 270.455 46.5456 272.608 48.0124C274.887 49.5637 276.09 51.7896 276.462 54.4818C276.572 55.2767 276.555 56.0927 276.558 56.8986C276.562 57.5374 276.537 57.5384 275.915 57.5384C270.937 57.5384 265.959 57.5384 260.983 57.5393C260.791 57.5393 260.598 57.5549 260.297 57.5687L260.296 57.5696ZM260.35 55.0738H273.28C273.338 51.9759 270.525 49.1341 267.271 49.0295C263.174 48.8982 260.704 51.8566 260.35 55.0738Z" fill="#898989"/>
<path d="M235.615 57.5572H219.45C219.578 58.1199 219.658 58.6128 219.804 59.0846C220.737 62.0999 223.439 63.9852 226.618 63.9191C229.081 63.8687 231.073 62.859 232.726 61.0838C232.849 60.9516 232.971 60.8203 233.122 60.6579C233.76 61.2279 234.38 61.7823 235.023 62.356C233.883 63.7906 232.56 64.9591 230.884 65.62C227.047 67.1318 223.314 67.0207 219.889 64.5231C217.696 62.9241 216.577 60.6432 216.238 57.9666C215.974 55.8802 216.188 53.8489 217.104 51.9461C218.629 48.7812 221.177 46.9803 224.637 46.4874C226.552 46.2148 228.437 46.3956 230.222 47.1758C233.254 48.5013 234.958 50.885 235.558 54.1032C235.765 55.2166 235.836 56.3392 235.615 57.5572ZM232.444 55.078C232.039 51.3669 229.416 48.7702 225.654 49.0483C222.312 49.2961 219.27 52.3399 219.532 55.078H232.443H232.444Z" fill="#898989"/>
<path d="M67.4898 70.7804H56.426C56.4169 70.6014 56.4004 70.4399 56.4004 70.2774C56.3986 67.029 56.394 63.7806 56.4105 60.5312C56.4114 60.3027 56.5055 60.0099 56.6617 59.8556C60.1913 56.3842 63.7355 52.9283 67.2778 49.4697C67.329 49.4192 67.3866 49.3751 67.4898 49.2852V70.7804Z" fill="#898989"/>
<path d="M163.011 66.5467C157.248 66.5384 152.897 62.2179 152.875 56.4838C152.853 50.7148 157.351 46.2988 163.234 46.3135C168.95 46.3273 173.276 50.7093 173.267 56.4719C173.257 62.1637 168.787 66.555 163.011 66.5467ZM156.159 56.761C156.23 57.1924 156.291 57.9258 156.477 58.6262C157.811 63.6645 163.909 65.5544 167.631 62.0407C169.945 59.8571 170.478 57.0878 169.628 54.1009C168.34 49.5693 163.176 47.6105 159.359 50.1641C157.137 51.6502 156.252 53.8595 156.159 56.761Z" fill="#898989"/>
<path d="M256.186 46.8462C256.011 47.2629 255.873 47.5989 255.729 47.9312C252.168 56.1408 248.603 64.3487 245.054 72.5629C244.877 72.9741 244.672 73.1357 244.216 73.1146C243.341 73.0733 242.462 73.1026 241.518 73.1026C241.614 72.8667 241.673 72.7006 241.747 72.54C242.717 70.4389 243.682 68.336 244.666 66.2423C244.803 65.9513 244.796 65.7237 244.668 65.4318C242.045 59.4352 239.434 53.434 236.821 47.4328C236.749 47.2684 236.686 47.1005 236.598 46.8802C236.781 46.8664 236.926 46.8471 237.069 46.8462C237.906 46.8435 238.744 46.8637 239.58 46.8361C239.955 46.8233 240.14 46.9453 240.284 47.2969C242.231 52.0085 244.193 56.7136 246.153 61.4196C246.238 61.6234 246.338 61.8217 246.475 62.1182C246.596 61.841 246.677 61.6675 246.75 61.4903C248.706 56.7824 250.666 52.0755 252.607 47.3612C252.773 46.96 252.981 46.8178 253.41 46.8343C254.306 46.8682 255.203 46.8444 256.185 46.8444L256.186 46.8462Z" fill="#898989"/>
<path d="M212.277 65.9268H209.029V65.4183C209.029 56.5431 209.032 47.6689 209.018 38.7938C209.018 38.3248 209.14 38.188 209.599 38.2091C210.358 38.244 211.12 38.2265 211.88 38.2155C212.167 38.2109 212.312 38.3027 212.279 38.6084C212.266 38.7286 212.277 38.8525 212.277 38.9737C212.277 47.7268 212.277 56.4789 212.277 65.232V65.9268Z" fill="#898989"/>
<path d="M204.118 65.9513C203.074 65.9513 202.116 65.9605 201.159 65.9385C201.059 65.9357 200.937 65.7641 200.872 65.6457C200.826 65.5631 200.86 65.4364 200.86 65.3299C200.86 59.381 200.86 53.4322 200.86 47.4824C200.86 47.0607 201.064 46.8496 201.472 46.849C202.202 46.849 202.934 46.8683 203.663 46.8408C204.037 46.827 204.13 46.9683 204.123 47.3153C204.106 48.3066 204.117 49.298 204.117 50.2893C204.117 55.2927 204.117 60.2962 204.117 65.2996L204.118 65.9513Z" fill="#898989"/>
</svg>
