<svg width="275" height="99" viewBox="0 0 275 99" fill="none" xmlns="http://www.w3.org/2000/svg">
<path d="M90.9651 37.1163C90.8021 37.0894 87.5422 37.0625 87.5422 37.0625C87.5422 37.0625 84.7985 34.429 84.5268 34.1603C84.4181 34.0528 84.2823 33.999 84.1465 33.999V74.1738L96.3983 71.164C96.3983 71.164 91.3998 37.7343 91.3726 37.4925C91.3183 37.2506 91.1281 37.1431 90.9651 37.1163Z" fill="#818181"/>
<path fill-rule="evenodd" clip-rule="evenodd" d="M90.9654 37.1171C91.1284 37.144 91.3458 37.2515 91.3729 37.4933C91.4001 37.7083 96.3986 71.1649 96.3986 71.1649L84.1468 74.1746L55.8672 69.3375C55.8672 69.3375 59.2357 43.5128 59.3716 42.626C59.5346 41.4167 59.5889 41.3899 60.8657 40.9868C60.885 40.9677 61.7972 40.6904 63.2409 40.2515C63.8274 40.0732 64.5017 39.8683 65.2394 39.6431C65.5111 37.7083 66.4619 35.2091 67.7387 33.2205C69.5588 30.372 71.7592 28.7865 73.9868 28.7328C75.1278 28.7059 76.0786 29.0821 76.8392 29.8883C76.8935 29.9689 76.9479 30.0227 77.0022 30.0764C77.1109 30.0496 77.2467 30.0496 77.3554 30.0496C79.094 30.0496 80.5066 31.017 81.4846 32.8712C81.7834 33.4355 82.0007 33.9998 82.1365 34.4567C83.0058 34.188 83.522 34.0267 83.522 34.0267C83.7393 33.973 84.2555 33.8924 84.5271 34.1611C84.7988 34.4298 87.5425 37.0633 87.5425 37.0633C87.5425 37.0633 90.8024 37.0902 90.9654 37.1171ZM79.6237 35.2214C80.0131 35.1001 80.3799 34.9859 80.7239 34.8866C80.3708 33.758 79.5558 31.8769 77.8443 31.5544C78.3605 32.8981 78.4963 34.4567 78.5235 35.5585C78.9084 35.4442 79.2752 35.33 79.6237 35.2214ZM75.9113 36.3647C76.299 36.2465 76.6812 36.1301 77.0565 36.0153C77.0565 34.806 76.9479 33.0056 76.3231 31.7425C75.6711 32.0113 75.1278 32.4681 74.7203 32.8981C73.6608 34.0267 72.7915 35.7466 72.3297 37.4664C73.5502 37.0841 74.7555 36.7169 75.9113 36.3647ZM75.3451 30.5601C74.9648 30.3183 74.5301 30.2108 74.014 30.2108C70.5911 30.3183 67.6028 35.6122 66.7879 39.1594C66.9054 39.1232 67.0237 39.0868 67.1427 39.0502C68.2616 38.7057 69.4449 38.3414 70.6726 37.977C71.1072 35.7197 72.1938 33.4086 73.6065 31.9038C74.1498 31.3126 74.7474 30.8557 75.3451 30.5601ZM75.9393 48.6185L77.3519 43.3515C77.3519 43.3515 76.1295 42.7334 73.6845 42.9484C67.4636 43.3515 64.6383 47.6511 64.91 51.897C65.093 54.7176 66.7823 55.9043 68.2629 56.9443C69.4201 57.7572 70.4499 58.4805 70.5333 59.8245C70.5876 60.5769 70.1258 61.625 68.8219 61.7056C66.8387 61.8131 64.3395 59.9588 64.3395 59.9588L63.3887 63.9629C63.3887 63.9629 65.8608 66.5695 70.3703 66.3008C74.1192 66.059 76.7271 63.103 76.4555 58.7496C76.242 55.4192 73.874 53.9156 71.9985 52.7247C70.7717 51.9456 69.7556 51.3004 69.6912 50.3653C69.664 49.9084 69.6912 48.1886 72.4621 48.0273C74.3637 47.893 75.9393 48.6185 75.9393 48.6185Z" fill="#898989"/>
<path d="M112.996 54.5836C111.583 53.8312 110.85 53.1862 110.85 52.2994C110.85 51.1708 111.855 50.4452 113.458 50.4452C115.305 50.4452 116.935 51.1977 116.935 51.1977L118.239 47.2742C118.239 47.2742 117.044 46.3606 113.539 46.3606C108.649 46.3606 105.254 49.1285 105.254 53.025C105.254 55.2286 106.829 56.9216 108.948 58.1308C110.66 59.0982 111.257 59.7701 111.257 60.7912C111.257 61.8393 110.415 62.6723 108.812 62.6723C106.449 62.6723 104.221 61.4631 104.221 61.4631L102.836 65.3865C102.836 65.3865 104.901 66.757 108.351 66.757C113.376 66.757 116.989 64.3116 116.989 59.9044C117.017 57.5128 115.196 55.8198 112.996 54.5836ZM133.044 46.3068C130.572 46.3068 128.616 47.4623 127.122 49.2359L127.041 49.2091L129.187 38.0838H123.591L118.157 66.3808H123.754L125.628 56.7066C126.362 53.0519 128.263 50.7946 130.056 50.7946C131.306 50.7946 131.795 51.6276 131.795 52.8369C131.795 53.5893 131.713 54.5299 131.55 55.2823L129.431 66.3539H135.027L137.228 54.9061C137.472 53.6968 137.635 52.2457 137.635 51.3052C137.635 48.2148 135.951 46.3068 133.044 46.3068ZM150.295 46.3068C143.558 46.3068 139.102 52.3263 139.102 59.0445C139.102 63.3441 141.792 66.7839 146.817 66.7839C153.419 66.7839 157.901 60.9256 157.901 54.0462C157.874 50.0959 155.51 46.3068 150.295 46.3068ZM147.524 62.538C145.622 62.538 144.807 60.9256 144.807 58.937C144.807 55.766 146.464 50.5796 149.507 50.5796C151.49 50.5796 152.142 52.2726 152.142 53.9118C152.142 57.3246 150.485 62.538 147.524 62.538ZM172.19 46.3068C168.414 46.3068 166.268 49.5853 166.268 49.5853H166.187L166.513 46.6024H161.568C161.324 48.6179 160.889 51.6545 160.427 53.9387L156.543 74.2007H162.139L163.687 66.0045H163.796C163.796 66.0045 164.937 66.7301 167.083 66.7301C173.657 66.7301 177.949 60.0657 177.949 53.3206C177.977 49.639 176.292 46.3068 172.19 46.3068ZM166.839 62.6186C165.372 62.6186 164.53 61.8124 164.53 61.8124L165.453 56.626C166.105 53.1862 167.925 50.8752 169.881 50.8752C171.593 50.8752 172.109 52.4338 172.109 53.9387C172.109 57.5128 169.963 62.6186 166.839 62.6186ZM185.963 38.3794C184.17 38.3794 182.758 39.7767 182.758 41.6041C182.758 43.2433 183.817 44.372 185.393 44.372H185.474C187.213 44.372 188.734 43.2165 188.761 41.1472C188.761 39.5349 187.675 38.3794 185.963 38.3794ZM178.14 66.3808H183.736L187.539 46.7637H181.888L178.14 66.3808ZM201.774 46.7099H197.889L198.079 45.7962C198.405 43.9151 199.546 42.2222 201.394 42.2222C202.399 42.2222 203.187 42.4909 203.187 42.4909L204.273 38.1644C204.273 38.1644 203.295 37.6807 201.231 37.6807C199.247 37.6807 197.264 38.245 195.743 39.5349C193.841 41.1472 192.945 43.4583 192.483 45.7962L192.32 46.7099H189.712L188.897 50.8752H191.505L188.544 66.3808H194.14L197.101 50.8752H200.959L201.774 46.7099ZM215.248 46.7637C215.248 46.7637 211.744 55.4973 210.168 60.2538H210.087C209.978 58.722 208.701 46.7637 208.701 46.7637H202.833L206.202 64.7953C206.283 65.1984 206.229 65.4402 206.093 65.7089C205.441 66.9451 204.355 68.1544 203.051 69.0412C201.991 69.7936 200.823 70.2773 199.872 70.5998L201.421 75.3025C202.562 75.0607 204.898 74.147 206.908 72.2928C209.462 69.928 211.825 66.2733 214.243 61.3018L221.089 46.7637H215.248Z" fill="#898989"/>
</svg>
