<svg width="308" height="99" viewBox="0 0 308 99" fill="none" xmlns="http://www.w3.org/2000/svg">
<path d="M249.111 48.9454C249.878 48.9454 250.612 48.9088 250.612 47.9944C250.612 47.2262 250.045 47.0433 249.411 47.0433H248.277V48.9454H249.111ZM248.31 51.9447H247.709V46.4581H249.644C250.779 46.4581 251.279 47.0068 251.279 47.9578C251.279 48.9454 250.712 49.3477 250.011 49.494L251.512 51.9081H250.779L249.377 49.494H248.343V51.9447H248.31ZM245.608 49.2014C245.608 51.4692 247.176 53.2615 249.244 53.2615C251.346 53.2615 252.88 51.4692 252.88 49.2014C252.88 46.9336 251.312 45.1413 249.244 45.1413C247.176 45.1413 245.608 46.9336 245.608 49.2014ZM253.581 49.2014C253.581 51.8716 251.713 53.9565 249.244 53.9565C246.809 53.9565 244.907 51.8716 244.907 49.2014C244.907 46.5313 246.775 44.4464 249.244 44.4464C251.713 44.4829 253.581 46.5678 253.581 49.2014ZM86.4147 59.4065C86.1145 60.5038 85.6808 61.528 85.1137 62.3693C84.5466 63.2471 83.8127 63.9421 82.9787 64.4907C82.1113 65.0394 81.1105 65.2955 79.9763 65.2955C78.8421 65.2955 77.8413 65.0394 76.9739 64.4907C76.1065 63.9421 75.406 63.2471 74.8389 62.3693C74.2718 61.4914 73.8381 60.5038 73.5378 59.4065C73.2376 58.3092 73.1042 57.1753 73.1042 56.0048C73.1042 54.8343 73.2376 53.7004 73.5378 52.6031C73.8381 51.5058 74.2718 50.4816 74.8389 49.6403C75.406 48.7625 76.1399 48.0675 76.9739 47.5188C77.8413 46.9702 78.8421 46.7141 79.9763 46.7141C81.1105 46.7141 82.1113 46.9702 82.9787 47.5188C83.846 48.0675 84.5466 48.7625 85.1137 49.6403C85.6808 50.5182 86.1145 51.5058 86.4147 52.6031C86.715 53.7004 86.8484 54.8343 86.8484 56.0048C86.8484 57.1753 86.715 58.3092 86.4147 59.4065ZM88.6498 51.5424C88.2495 50.1524 87.649 48.9454 86.8484 47.8846C86.0811 46.8605 85.1137 46.0192 83.9461 45.3974C82.8119 44.7755 81.4775 44.4829 79.9763 44.4829C78.4751 44.4829 77.1741 44.7755 76.0065 45.3974C74.8722 46.0192 73.8714 46.8605 73.1042 47.8846C72.3035 48.9454 71.7364 50.1524 71.3027 51.5424C70.9024 52.9323 70.7023 54.432 70.7023 56.0048C70.7023 56.1511 70.7356 56.2608 70.7356 56.4071C71.0359 58.0531 71.3361 59.6991 71.6697 61.3817C72.0366 62.4058 72.5037 63.3568 73.1042 64.125C73.8714 65.1491 74.8722 65.9904 76.0065 66.6122C77.1741 67.234 78.4751 67.5267 79.9763 67.5267C81.4775 67.5267 82.7785 67.234 83.9461 66.6122C85.1137 65.9904 86.0811 65.1857 86.8484 64.125C87.649 63.1008 88.2495 61.8572 88.6498 60.4672C89.0502 59.0773 89.2503 57.5776 89.2503 56.0048C89.2503 54.432 89.0502 52.9323 88.6498 51.5424ZM94.3544 59.2602C94.5879 60.3941 94.9548 61.3817 95.4552 62.2595C95.9556 63.1374 96.5895 63.8689 97.3567 64.4176C98.124 64.9662 99.0581 65.2589 100.159 65.2589C101.36 65.2589 102.394 64.9662 103.228 64.4176C104.062 63.8689 104.729 63.1374 105.263 62.2595C105.797 61.3817 106.164 60.3575 106.397 59.2602C106.631 58.1263 106.731 56.9924 106.731 55.8585C106.731 54.7246 106.631 53.5907 106.397 52.4568C106.164 51.3229 105.797 50.3353 105.263 49.4574C104.729 48.5796 104.062 47.848 103.228 47.2994C102.394 46.7507 101.36 46.4581 100.159 46.4581C99.0581 46.4581 98.124 46.7507 97.3567 47.2994C96.5895 47.848 95.9556 48.5796 95.4552 49.4574C94.9548 50.3353 94.5879 51.3595 94.3544 52.4568C94.1208 53.5907 94.0208 54.7246 94.0208 55.8585C94.0208 56.9924 94.1208 58.1263 94.3544 59.2602ZM106.931 66.9049V62.6985H106.864C106.631 63.3934 106.264 64.0518 105.797 64.6736C105.33 65.2589 104.796 65.771 104.196 66.2099C103.595 66.6122 102.928 66.9414 102.261 67.1609C101.56 67.3804 100.893 67.4901 100.192 67.4901C98.7579 67.4901 97.5235 67.1975 96.456 66.5757C95.3885 65.9538 94.5212 65.1126 93.8206 64.0518C93.1201 62.9911 92.5863 61.7474 92.2527 60.3209C91.9191 58.8944 91.7523 57.4313 91.7523 55.8585C91.7523 54.2857 91.9191 52.786 92.2527 51.3961C92.5863 49.9695 93.1201 48.7259 93.8206 47.6652C94.5212 46.6044 95.3885 45.7631 96.456 45.1047C97.5235 44.4829 98.7579 44.1537 100.192 44.1537C100.893 44.1537 101.56 44.2635 102.261 44.4464C102.928 44.6292 103.562 44.9584 104.129 45.3608C104.696 45.7631 105.23 46.2752 105.663 46.897C106.097 47.4823 106.464 48.2138 106.698 48.9819H106.764V36.3262H109.066V66.8683H106.931M126.947 58.5286C126.947 58.6384 126.947 58.7115 126.947 58.7847C126.914 59.3333 126.813 60.138 126.547 60.9793C125.946 62.8082 124.478 64.7834 121.142 65.4418C120.642 65.5149 120.141 65.5515 119.574 65.5515C116.672 65.5515 114.804 63.8323 114.804 61.1256C114.804 60.4307 114.937 59.7723 115.238 59.187C115.271 59.1505 115.271 59.0773 115.304 59.0407C115.338 59.0041 115.338 58.9676 115.371 58.931C115.505 58.7115 115.671 58.4921 115.838 58.2726C115.871 58.236 115.905 58.1994 115.905 58.1994C115.938 58.1629 115.972 58.1263 116.038 58.0897C116.238 57.8702 116.472 57.6874 116.739 57.5045C117.039 57.3216 118.774 56.334 121.609 56.1145C123.711 55.9682 125.379 55.7122 126.647 55.2001L126.914 55.0904L126.947 57.3216C126.947 57.3216 126.947 57.3582 126.947 57.3947V57.98V58.4921V58.5286ZM121.576 44.4829C116.939 44.4829 113.903 47.3725 113.736 51.3229H115.705C115.938 48.2138 117.873 46.3484 121.643 46.3484C125.379 46.3484 126.88 47.7749 126.88 51.3595C126.88 53.2981 126.313 53.7004 124.678 54.1028C123.477 54.3954 121.743 54.5783 121.142 54.6149C121.076 54.6149 121.042 54.6149 120.975 54.6149C120.942 54.6149 120.942 54.6149 120.942 54.6149C119.141 54.7977 117.406 55.0172 115.905 55.7853C113.837 56.8095 112.736 58.7115 112.736 61.1988C112.736 65.0394 115.238 67.4535 119.241 67.4535C122.11 67.4535 124.612 66.2099 126.613 63.7226L126.98 63.3203V64.1981C126.98 65.8441 127.514 67.2341 128.782 67.4901V50.9571C128.782 46.7141 126.313 44.4829 121.576 44.4829ZM155.336 44.4098V37.7161H151.033V61.8572C151.066 62.7716 151.166 63.6129 151.3 64.3444C151.433 65.0394 151.733 65.6246 152.134 66.1001C152.534 66.5757 153.101 66.9049 153.835 67.1609C154.569 67.4169 155.57 67.5267 156.804 67.5267C157.338 67.5267 157.838 67.4901 158.338 67.4535C158.772 67.4169 159.206 67.3438 159.673 67.3072V63.9055C159.406 63.9421 159.172 63.9787 158.906 63.9787C158.572 63.9787 158.238 64.0152 157.871 64.0152C157.304 64.0152 156.837 63.9421 156.504 63.7958C156.137 63.6495 155.87 63.3934 155.703 63.1008C155.536 62.8082 155.436 62.4424 155.369 62.0035C155.336 61.6011 155.303 61.1256 155.303 60.577V47.9944H159.64V44.6658H155.303V44.4098M187.595 54.8343H177.187V54.5783C177.22 53.6638 177.354 52.8226 177.654 52.0179C177.921 51.2497 178.288 50.5548 178.755 49.9695C179.222 49.3843 179.789 48.9088 180.423 48.5796C181.057 48.2504 181.79 48.0675 182.591 48.0675C183.358 48.0675 184.059 48.2504 184.693 48.6162C185.327 48.9819 185.86 49.4574 186.294 50.0427C186.728 50.6279 187.061 51.3229 187.328 52.091C187.562 52.8591 187.728 53.7004 187.762 54.5417L187.795 54.7977H187.595V54.8343ZM189.697 48.6162C188.896 47.3725 187.895 46.3484 186.694 45.6168C185.493 44.8487 184.126 44.4829 182.624 44.4829C181.19 44.4829 179.889 44.8121 178.755 45.4705C177.62 46.1289 176.62 47.0068 175.819 48.1407C175.018 49.238 174.385 50.5548 173.951 52.0179C173.517 53.481 173.284 55.0904 173.284 56.6998C173.284 58.4921 173.484 60.1746 173.918 61.6377C174.318 63.1374 174.952 64.4176 175.752 65.4783C176.553 66.5391 177.554 67.3804 178.721 67.9656C179.889 68.5508 181.257 68.8435 182.758 68.8435C183.792 68.8435 184.793 68.6606 185.76 68.3314C186.728 68.0022 187.595 67.4901 188.362 66.8317C189.13 66.1733 189.797 65.332 190.331 64.381C190.831 63.4666 191.198 62.479 191.431 61.3451H187.728C187.328 62.6253 186.728 63.5763 185.96 64.2347C185.16 64.9297 184.059 65.2589 182.758 65.2589C181.79 65.2589 180.956 65.076 180.289 64.6736C179.589 64.2713 179.022 63.7592 178.555 63.0642C178.121 62.4058 177.754 61.6377 177.554 60.7599C177.32 59.882 177.22 58.9676 177.22 58.0531V57.7971H191.765C191.898 56.1511 191.798 54.5051 191.465 52.9689C191.064 51.3229 190.497 49.8598 189.697 48.6162ZM236.033 44.4829C234.632 44.4829 233.431 44.8121 232.497 45.4705C231.563 46.1289 230.696 47.0433 229.995 48.1772L229.762 48.5796L229.595 48.1407C229.195 46.897 228.461 45.9826 227.493 45.3974C226.493 44.8121 225.392 44.4829 224.224 44.4829C223.457 44.4829 222.756 44.5927 222.156 44.7755C221.555 44.9584 221.022 45.2145 220.588 45.5071C220.121 45.8363 219.721 46.2021 219.354 46.6776C218.987 47.1531 218.62 47.6652 218.286 48.1772L218.219 48.287H217.752V45.1047H214.049V67.5267H217.986V54.1759C217.986 53.2249 218.119 52.3471 218.353 51.5789C218.62 50.8108 218.953 50.1524 219.354 49.6403C219.754 49.1282 220.254 48.7259 220.821 48.4333C221.389 48.1407 221.956 48.0309 222.556 48.0309C223.957 48.0309 224.958 48.4699 225.492 49.3477C226.026 50.189 226.292 51.4692 226.292 53.0786V67.5267H230.229V54.3588C230.229 52.3836 230.596 50.8108 231.263 49.7135C231.964 48.5796 233.131 48.0309 234.699 48.0309C235.566 48.0309 236.3 48.1772 236.801 48.5064C237.335 48.8356 237.735 49.2746 238.002 49.8598C238.269 50.445 238.402 51.1034 238.469 51.9081C238.535 52.6763 238.535 53.5175 238.535 54.432V67.5632H242.472V51.9813C242.472 49.2746 241.905 47.336 240.804 46.2386C239.67 45.0316 238.068 44.4829 236.033 44.4829ZM206.41 55.9682V58.7481C206.41 61.9303 203.941 64.2347 200.539 64.2347C198.237 64.2347 196.936 62.9911 196.936 60.7964C196.936 58.8578 197.97 57.6874 200.138 57.2484C200.672 57.1387 201.239 57.029 201.806 56.9558C203.341 56.6998 204.809 56.4803 206.11 55.7488L206.443 55.5659V55.9682H206.41ZM208.345 46.0923C207.01 45.0316 204.942 44.4829 202.24 44.4829C199.671 44.4829 197.57 45.1413 196.135 46.3849C194.734 47.592 194 49.3111 194 51.3961V51.6521H197.67V51.6155C197.67 49.2014 199.238 47.8846 202.073 47.8846C205.109 47.8846 206.577 48.9819 206.577 51.2132C206.577 53.4078 205.476 53.5541 202.173 53.993L201.74 54.0662C198.537 54.5051 196.636 55.0904 195.301 56.0414C193.767 57.1387 193.066 58.8213 193.066 61.2354C193.066 65.1857 195.501 67.5267 199.571 67.5267C202.273 67.5267 204.675 66.283 206.343 63.9787L206.744 63.43V64.125C206.777 66.2465 207.911 67.1975 210.38 67.2341V50.7742C210.346 48.6893 209.679 47.1165 208.345 46.0923ZM140.691 53.3347C138.456 52.786 137.055 52.091 137.055 50.2987C137.055 48.7259 138.456 47.7749 140.758 47.7749C143.46 47.7749 145.095 49.0551 145.328 51.2497H149.165C149.098 49.2746 148.364 47.592 146.996 46.4215C145.528 45.1779 143.427 44.4829 140.925 44.4829C136.087 44.4829 133.052 47.0068 133.052 51.0668C133.052 54.2857 134.753 55.9316 139.323 57.1387L142.426 57.9434C144.361 58.4555 145.829 59.0041 145.829 60.8696C145.829 62.8448 144.094 64.125 141.458 64.125C138.323 64.125 136.655 62.8448 136.388 60.1746H132.485C132.551 62.4424 133.285 64.2347 134.686 65.4783C136.154 66.7951 138.323 67.4901 141.058 67.4901C143.794 67.4901 146.029 66.8317 147.53 65.5515C148.998 64.3079 149.765 62.5156 149.765 60.3209C149.765 56.334 147.497 55.0172 143.293 53.9565L140.691 53.3347ZM166.345 48.8722C166.311 48.9454 166.311 49.0185 166.278 49.0917L166.245 49.2746H165.778V44.7755H162.141V67.4901H166.045V56.6998C166.045 56.078 166.078 55.4561 166.145 54.8709C166.178 54.6514 166.211 54.432 166.245 54.2125C166.779 50.6279 169.281 48.0309 172.216 48.0309C172.583 48.0309 172.917 48.0675 173.25 48.1407V44.7755C172.717 44.5561 172.116 44.4464 171.549 44.4464C169.281 44.4829 167.212 46.2021 166.345 48.8722ZM63.1296 55.1269C62.7293 55.0172 62.3623 54.9441 61.9953 54.8709C58.259 53.9565 56.0239 53.4078 56.0239 50.2987C56.0239 47.9212 57.9588 46.3849 60.9946 46.3849C64.3973 46.3849 66.4989 48.1772 66.7324 51.2863H68.9008C68.5339 47.0433 65.6983 44.5195 61.0613 44.5195C56.7579 44.5195 53.8889 46.9702 53.8889 50.6645C53.8889 54.3222 56.2241 55.5293 61.4282 56.8461L61.5617 56.8827C65.298 57.7971 67.3663 58.3457 67.3663 61.1988C67.3663 63.8689 65.0311 65.6612 61.4616 65.6612C58.259 65.6612 55.7904 63.3934 55.6236 60.577H53.4219C53.622 64.8199 56.7912 67.5267 61.5283 67.5267C66.2988 67.5267 69.4679 64.9663 69.4679 61.2719C69.4679 57.9434 67.8333 56.2974 63.1296 55.1269Z" fill="#898989"/>
</svg>
