<svg width="313" height="98" viewBox="0 0 313 98" fill="none" xmlns="http://www.w3.org/2000/svg">
<path d="M78.7865 70.484C76.09 68.7938 74.1044 62.96 74.1044 56.0294C74.1044 55.7751 74.1054 55.524 74.1119 55.2739L74.1151 55.2772C66.6164 54.0977 61.1977 50.8653 61.0594 47.0438L61.0368 47.0878C59.2013 49.3704 58.1538 52.0093 58.1538 54.8211C58.1538 63.0952 67.2275 69.8744 78.7372 70.4743L78.7865 70.484ZM54.6875 55.4252C54.6875 46.167 66.1982 38.6602 80.3979 38.6602C94.5977 38.6602 106.108 46.167 106.108 55.4252C106.108 64.6835 94.5977 72.1903 80.3979 72.1903C66.1982 72.1903 54.6875 64.6835 54.6875 55.4252ZM80.3979 41.0791C83.1395 41.0791 85.4703 45.2408 86.3345 51.0489L86.3377 51.0403C91.6707 50.2096 95.405 48.2919 95.405 46.0618C95.405 43.0677 88.6858 40.6445 80.3979 40.6445C72.1101 40.6445 65.3909 43.0687 65.3909 46.0618C65.3909 48.2919 69.1242 50.2086 74.4582 51.0403L74.4614 51.0489C75.3255 45.2419 77.6575 41.0791 80.3979 41.0791ZM82.0577 70.4743C93.5673 69.8744 102.642 63.0952 102.642 54.8211C102.642 52.0093 101.594 49.3704 99.759 47.0878L99.7365 47.0438C99.5982 50.8653 94.1806 54.0977 86.6808 55.2772L86.684 55.2739C86.6894 55.524 86.6915 55.7751 86.6915 56.0294C86.6915 62.96 84.7037 68.7938 82.0094 70.484L82.0577 70.4743ZM80.3979 51.4803C81.6266 51.4803 82.82 51.4277 83.9618 51.3268L83.9607 51.3279C83.3925 47.605 82.0115 44.9779 80.3979 44.9779C78.7843 44.9779 77.4045 47.605 76.8351 51.3279L76.8341 51.3268C77.9759 51.4277 79.1692 51.4803 80.3979 51.4803ZM80.3979 65.2662C82.4619 65.2662 84.1452 60.9671 84.2352 55.5755L84.2459 55.5787C81.686 55.8148 79.1099 55.8148 76.55 55.5787L76.5618 55.5755C76.6507 60.9682 78.334 65.2662 80.3979 65.2662ZM185.879 55.4252C185.879 48.3488 191.611 42.6126 198.68 42.6126C205.752 42.6126 211.483 48.3498 211.483 55.4252C211.483 62.5028 205.751 68.2379 198.68 68.2379C191.611 68.2379 185.879 62.5017 185.879 55.4252ZM198.68 63.5395C202.629 63.5395 205.829 59.9057 205.829 55.4242C205.829 50.9437 202.629 47.3088 198.68 47.3088C194.733 47.3088 191.534 50.9426 191.534 55.4242C191.534 59.9057 194.734 63.5395 198.68 63.5395ZM226.008 47.9506V67.6562H220.615V47.9506H220.634H213.091V43.4948H233.533V47.9495L226.008 47.9506ZM240.057 62.2206L240.051 62.2259L237.982 67.6573H231.683L241.641 43.4959H248.354L258.314 67.6573H252.014L249.944 62.2259L249.939 62.2206H244.999H240.057ZM244.999 58.1425H248.393L248.391 58.1436L245.022 49.3007H244.975L241.604 58.1436L241.603 58.1425H244.999ZM126.583 47.9506V67.6562H121.189V47.9506H121.208H113.664V43.4948H134.107V47.9495L126.583 47.9506ZM135.488 55.4252C135.488 48.3488 141.22 42.6126 148.29 42.6126C155.36 42.6126 161.092 48.3498 161.092 55.4252C161.092 62.5028 155.36 68.2379 148.29 68.2379C141.22 68.2379 135.488 62.5017 135.488 55.4252ZM148.29 63.5395C152.237 63.5395 155.439 59.9057 155.439 55.4242C155.439 50.9437 152.238 47.3088 148.29 47.3088C144.343 47.3088 141.142 50.9426 141.142 55.4242C141.142 59.9057 144.343 63.5395 148.29 63.5395ZM173.485 67.6562H176.22V58.4816L185.63 43.4948H179.332L173.485 53.6502L167.64 43.4948H161.34L170.75 58.4816V67.6551L173.485 67.6562Z" fill="#898989"/>
</svg>
