<svg width="267" height="98" viewBox="0 0 267 98" fill="none" xmlns="http://www.w3.org/2000/svg">
<path d="M54.1094 43.7034C56.7197 43.7034 59.3299 43.7078 61.9409 43.6995C62.1677 43.6989 62.2671 43.7664 62.3461 43.9805C64.1803 48.9423 66.0229 53.901 67.8642 58.8602C67.9075 58.9775 67.9566 59.0922 68.0235 59.2604C68.4911 57.9388 68.9396 56.6727 69.3869 55.4066C70.7255 51.616 72.0666 47.826 73.3963 44.0321C73.4842 43.7817 73.5944 43.697 73.864 43.6983C76.2729 43.7097 78.6819 43.7046 81.0908 43.7053C81.3474 43.7053 81.4291 43.8202 81.3361 44.05C78.1766 51.8122 75.0165 59.5739 71.857 67.3361C70.6318 70.345 69.4047 73.3525 68.1859 76.3639C68.1037 76.5665 68.0133 76.6551 67.7769 76.6538C65.1876 76.6436 62.5984 76.6442 60.0091 76.6525C59.7371 76.6531 59.6906 76.606 59.8021 76.3454C61.0005 73.543 62.1868 70.7362 63.3827 67.9325C63.4668 67.735 63.4846 67.5655 63.4037 67.3591C60.3398 59.5694 57.2829 51.7785 54.2241 43.9882C54.1941 43.9111 54.1482 43.841 54.1094 43.7671C54.1094 43.746 54.1094 43.7244 54.1094 43.7034Z" fill="#898989"/>
<path d="M123.644 46.1974C123.944 45.9769 124.193 45.7851 124.45 45.6054C125.898 44.5929 127.387 43.6435 129.152 43.2969C131.62 42.8126 134.036 42.9177 136.273 44.2202C138.114 45.2925 139.247 46.955 140.018 48.8933C140.606 50.3729 140.885 51.9219 141.014 53.4996C141.167 55.3761 141.125 57.2475 140.711 59.0935C139.976 62.3686 138.296 65.0142 135.428 66.8309C133.65 67.9568 131.675 68.3232 129.591 68.2735C127.568 68.2251 125.67 67.7567 123.909 66.7582C123.686 66.6314 123.612 66.6595 123.553 66.908C123.483 67.2036 123.501 67.6191 123.279 67.7561C123.046 67.9001 122.664 67.8077 122.346 67.8083C120.298 67.8102 118.25 67.8051 116.201 67.8153C115.95 67.8166 115.885 67.7478 115.885 67.498C115.891 56.5817 115.891 45.6653 115.885 34.7496C115.885 34.4877 115.95 34.4138 116.216 34.4151C118.582 34.4253 120.949 34.4253 123.316 34.4151C123.577 34.4138 123.651 34.4775 123.651 34.7445C123.642 38.4325 123.644 42.1206 123.644 45.8093V46.1999V46.1974ZM123.644 56.2153C123.644 58.1428 123.647 60.0703 123.64 61.9984C123.64 62.1979 123.691 62.2915 123.894 62.3565C125.469 62.858 127.07 62.9217 128.683 62.6178C129.918 62.3852 130.971 61.8143 131.741 60.7859C132.724 59.4739 133.014 57.9465 133.068 56.3669C133.095 55.5787 133.116 54.7848 133.023 53.9921C132.927 53.1631 132.783 52.3507 132.485 51.5702C132.06 50.4563 131.361 49.6044 130.192 49.2081C129.404 48.9405 128.597 48.8895 127.769 48.9137C126.379 48.9545 125.113 49.3884 123.897 50.0218C123.7 50.1244 123.639 50.2473 123.639 50.4659C123.648 52.3832 123.644 54.2999 123.644 56.2172V56.2153Z" fill="#898989"/>
<path d="M186.425 55.9223C186.41 53.6564 186.716 51.5932 187.61 49.6536C188.935 46.7792 191.119 44.8027 194.114 43.8144C197.785 42.6031 201.512 42.5878 205.176 43.8163C208.912 45.0684 211.272 47.7076 212.304 51.4893C213.095 54.3892 213.094 57.3235 212.257 60.2106C211.112 64.1567 208.515 66.752 204.57 67.8957C201.215 68.8681 197.811 68.8674 194.473 67.8256C190.353 66.5398 187.84 63.6979 186.822 59.5256C186.523 58.2958 186.407 57.0425 186.426 55.9229L186.425 55.9223ZM204.836 55.8496C204.859 55.329 204.808 54.8104 204.771 54.2936C204.691 53.1798 204.485 52.0902 204.025 51.0618C203.469 49.8186 202.6 48.9189 201.245 48.5583C200.563 48.3767 199.868 48.3168 199.165 48.3563C197.916 48.427 196.829 48.8424 196.003 49.8256C195.475 50.4545 195.125 51.1797 194.915 51.9615C194.262 54.4032 194.271 56.8609 194.831 59.316C195.066 60.3431 195.514 61.2677 196.297 62.0119C197.704 63.3494 200.381 63.473 202.019 62.6746C203.182 62.1081 203.821 61.1014 204.269 59.948C204.782 58.6284 204.797 57.2368 204.836 55.8496Z" fill="#898989"/>
<path d="M101.824 65.2245C101.662 65.2385 101.587 65.3366 101.497 65.4023C100.165 66.367 98.8106 67.3005 97.2592 67.8886C95.6785 68.4876 94.0316 68.5538 92.3693 68.4041C91.1735 68.2964 90.0356 67.9816 88.9926 67.3718C87.1985 66.3217 86.1975 64.7071 85.7006 62.7382C85.4241 61.6435 85.326 60.5265 85.3253 59.4018C85.3209 54.2833 85.3253 49.1654 85.3164 44.0468C85.3164 43.7614 85.3929 43.6983 85.6694 43.6995C88.0356 43.711 90.4019 43.7123 92.7682 43.6983C93.0746 43.6964 93.1269 43.7951 93.1269 44.0717C93.1262 48.4696 93.1294 52.8668 93.1479 57.2647C93.1517 58.1529 93.2084 59.0425 93.4588 59.9059C93.8583 61.2841 94.7057 61.9716 96.136 62.1545C98.0818 62.4037 99.853 61.9213 101.533 60.9763C101.757 60.8502 101.831 60.7043 101.83 60.45C101.822 55.0141 101.824 49.5776 101.825 44.1411C101.825 43.6346 101.768 43.7066 102.266 43.7066C104.579 43.704 106.893 43.7097 109.205 43.7002C109.479 43.6989 109.58 43.7454 109.58 44.0545C109.57 51.8537 109.57 59.6529 109.579 67.4521C109.579 67.7439 109.503 67.8166 109.214 67.8153C106.868 67.8032 104.523 67.8026 102.178 67.816C101.877 67.8179 101.81 67.7274 101.817 67.4445C101.836 66.7079 101.823 65.9706 101.823 65.2251L101.824 65.2245Z" fill="#898989"/>
<path d="M181.967 63.3095C181.967 64.2952 181.958 65.2809 181.974 66.266C181.977 66.5037 181.904 66.6222 181.687 66.7171C179.615 67.6245 177.477 68.2617 175.202 68.3987C172.499 68.5618 169.833 68.3687 167.264 67.4709C162.768 65.899 160.171 62.7392 159.558 58.008C159.25 55.6294 159.354 53.2629 160.168 50.9843C161.466 47.3516 164.053 45.0195 167.705 43.9121C172.479 42.4637 177.166 42.7874 181.719 44.857C181.916 44.9469 181.973 45.0565 181.972 45.2655C181.964 47.258 181.963 49.2498 181.973 51.2423C181.974 51.5061 181.896 51.5654 181.637 51.5864C181.105 51.6297 180.699 51.4743 180.297 51.1111C179.01 49.9482 177.516 49.139 175.814 48.7617C174.568 48.4852 173.307 48.4693 172.059 48.7535C170.028 49.2154 168.688 50.4943 167.987 52.4103C167.203 54.5557 167.18 56.7585 167.857 58.9294C168.577 61.2348 170.245 62.4964 172.604 62.8335C174.411 63.0915 176.178 62.8902 177.866 62.1536C178.852 61.7235 179.698 61.0863 180.463 60.3471C180.757 60.063 181.055 59.9623 181.45 59.9846C181.966 60.0139 181.967 59.9916 181.967 60.5122C181.967 61.445 181.967 62.3766 181.967 63.3095Z" fill="#898989"/>
<path d="M153.894 55.7603C153.894 59.6605 153.891 63.5601 153.901 67.4604C153.901 67.7331 153.846 67.8147 153.556 67.8134C151.19 67.8 148.823 67.8026 146.457 67.8108C146.213 67.8115 146.135 67.7573 146.135 67.4993C146.142 59.6675 146.142 51.8352 146.136 44.0035C146.136 43.7703 146.19 43.6983 146.434 43.6995C148.822 43.7091 151.209 43.7104 153.597 43.6983C153.872 43.697 153.898 43.8021 153.898 44.029C153.892 47.9394 153.894 51.8499 153.894 55.7603Z" fill="#898989"/>
<path d="M150.042 34.4189C151.294 34.4189 152.544 34.424 153.796 34.4138C154.022 34.4119 154.105 34.4558 154.103 34.705C154.091 36.4623 154.092 38.2203 154.102 39.9777C154.103 40.2135 154.044 40.2797 153.803 40.2791C151.28 40.2702 148.757 40.2708 146.233 40.2791C146.004 40.2797 145.926 40.2339 145.928 39.9866C145.939 38.2293 145.939 36.4713 145.928 34.7139C145.926 34.4794 145.983 34.4112 146.225 34.4131C147.497 34.4259 148.769 34.4189 150.042 34.4189Z" fill="#898989"/>
</svg>
