<?xml version="1.0" encoding="UTF-8"?>
<svg xmlns="http://www.w3.org/2000/svg" width="150" height="140" viewBox="0 0 150 140" fill="none">
  <path d="M46.6655 36.7176C47.2211 36.7176 47.7305 36.7555 48.1935 36.8313C48.665 36.907 49.0691 37.0502 49.4058 37.2606C49.7426 37.4627 50.0036 37.7447 50.1888 38.1067C50.374 38.4603 50.4666 38.9191 50.4666 39.4832C50.4666 40.0557 50.374 40.5229 50.1888 40.8849C50.0036 41.2385 49.7426 41.5163 49.4058 41.7184C49.0691 41.9204 48.665 42.0593 48.1935 42.1351C47.7305 42.2109 47.2211 42.2488 46.6655 42.2488H45.087V45.873H43.7989V36.7176H46.6655ZM45.087 37.8036V41.1249H46.7665C47.1033 41.1249 47.4148 41.1122 47.701 41.087C47.9957 41.0533 48.2482 40.9817 48.4587 40.8723C48.6776 40.7544 48.846 40.5903 48.9638 40.3798C49.0901 40.1609 49.1533 39.862 49.1533 39.4832C49.1533 39.1128 49.0901 38.8181 48.9638 38.5992C48.846 38.3719 48.6776 38.1993 48.4587 38.0815C48.2482 37.9636 47.9957 37.8878 47.701 37.8542C47.4148 37.8205 47.1033 37.8036 46.7665 37.8036H45.087ZM56.4073 36.7176H57.8974L61.3449 45.873H59.9558L59.236 43.8904H55.0308L54.3236 45.873H53.0103L56.4073 36.7176ZM55.4223 42.7918H58.8319L57.1144 38.0183L55.4223 42.7918ZM68.4565 36.7176C69.0121 36.7176 69.5215 36.7555 69.9845 36.8313C70.456 36.907 70.8601 37.0502 71.1968 37.2606C71.5336 37.4627 71.7946 37.7447 71.9798 38.1067C72.165 38.4603 72.2576 38.9191 72.2576 39.4832C72.2576 40.0557 72.165 40.5229 71.9798 40.8849C71.7946 41.2385 71.5336 41.5163 71.1968 41.7184C70.8601 41.9204 70.456 42.0593 69.9845 42.1351C69.5215 42.2109 69.0121 42.2488 68.4565 42.2488H66.878V45.873H65.5899V36.7176H68.4565ZM66.878 37.8036V41.1249H68.5575C68.8943 41.1249 69.2058 41.1122 69.492 41.087C69.7867 41.0533 70.0392 40.9817 70.2497 40.8723C70.4686 40.7544 70.637 40.5903 70.7548 40.3798C70.8811 40.1609 70.9443 39.862 70.9443 39.4832C70.9443 39.1128 70.8811 38.8181 70.7548 38.5992C70.637 38.3719 70.4686 38.1993 70.2497 38.0815C70.0392 37.9636 69.7867 37.8878 69.492 37.8542C69.2058 37.8205 68.8943 37.8036 68.5575 37.8036H66.878ZM78.1983 36.7176H79.6884L83.1359 45.873H81.7468L81.027 43.8904H76.8218L76.1146 45.873H74.8013L78.1983 36.7176ZM77.2133 42.7918H80.6229L78.9054 38.0183L77.2133 42.7918ZM86.698 36.7176L89.1984 41.188L91.7493 36.7176H93.1636L89.8045 42.3245V45.873H88.5165V42.2993L85.2836 36.7176H86.698ZM98.7067 36.7176H100.197L103.644 45.873H102.255L101.535 43.8904H97.3302L96.6231 45.873H95.3097L98.7067 36.7176ZM97.7217 42.7918H101.131L99.4139 38.0183L97.7217 42.7918Z" fill="white"></path>
  <path d="M46.681 51.4656C47.1524 51.4656 47.5986 51.5329 48.0196 51.6676C48.4405 51.7939 48.8151 51.9791 49.1435 52.2233C49.4718 52.459 49.7496 52.7536 49.9769 53.1072C50.2127 53.4608 50.3768 53.8565 50.4694 54.2943H49.2192C49.0677 53.7807 48.7773 53.364 48.3479 53.0441C47.927 52.7158 47.3503 52.5516 46.6178 52.5516C46.2137 52.5516 45.8349 52.6316 45.4813 52.7915C45.1361 52.9431 44.8331 53.1746 44.5721 53.4861C44.3111 53.7891 44.1048 54.168 43.9533 54.6226C43.8102 55.0772 43.7386 55.5992 43.7386 56.1885C43.7386 56.7694 43.8102 57.2872 43.9533 57.7418C44.0964 58.1964 44.2943 58.5836 44.5468 58.9036C44.7994 59.2151 45.1025 59.455 45.456 59.6234C45.8096 59.7833 46.1969 59.8633 46.6178 59.8633C46.9209 59.8633 47.2324 59.8296 47.5523 59.7623C47.8722 59.6865 48.1627 59.5602 48.4237 59.3834C48.6847 59.1982 48.8993 58.9499 49.0677 58.6384C49.2361 58.3269 49.3203 57.9354 49.3203 57.4639V57.224H46.8957V56.1127H50.5326V60.7852H49.5223L49.4592 59.636C49.1645 60.1074 48.7604 60.4442 48.2469 60.6462C47.7417 60.8483 47.1819 60.9493 46.5673 60.9493C45.9107 60.9493 45.3256 60.8315 44.812 60.5957C44.2985 60.36 43.8649 60.0317 43.5113 59.6107C43.1577 59.1898 42.8883 58.6889 42.7031 58.108C42.5179 57.5271 42.4253 56.8873 42.4253 56.1885C42.4253 55.4813 42.5263 54.8373 42.7284 54.2564C42.9304 53.6755 43.2167 53.1788 43.5871 52.7663C43.9575 52.3537 44.4037 52.0338 44.9257 51.8065C45.4476 51.5792 46.0327 51.4656 46.681 51.4656ZM56.525 59.6739H61.3616V60.7852H55.237V51.6297H56.525V59.6739ZM65.3456 56.2011C65.3456 56.7904 65.4214 57.3124 65.5729 57.767C65.7329 58.2216 65.9434 58.6047 66.2043 58.9162C66.4737 59.2277 66.7894 59.4634 67.1514 59.6234C67.5135 59.7833 67.9049 59.8633 68.3259 59.8633C68.7384 59.8633 69.1257 59.7833 69.4877 59.6234C69.8581 59.4634 70.1738 59.2277 70.4348 58.9162C70.7042 58.6047 70.9146 58.2216 71.0662 57.767C71.2261 57.3124 71.3061 56.7904 71.3061 56.2011C71.3061 55.6118 71.2261 55.0898 71.0662 54.6352C70.9146 54.1806 70.7042 53.8018 70.4348 53.4987C70.1738 53.1872 69.8581 52.9515 69.4877 52.7915C69.1257 52.6316 68.7384 52.5516 68.3259 52.5516C67.9049 52.5516 67.5135 52.6316 67.1514 52.7915C66.7894 52.9515 66.4737 53.1872 66.2043 53.4987C65.9434 53.8018 65.7329 54.1806 65.5729 54.6352C65.4214 55.0898 65.3456 55.6118 65.3456 56.2011ZM72.6194 56.2011C72.6194 56.8915 72.5184 57.5271 72.3164 58.108C72.1227 58.6889 71.8365 59.1898 71.4577 59.6107C71.0872 60.0317 70.6368 60.36 70.1064 60.5957C69.5761 60.8315 68.9825 60.9493 68.3259 60.9493C67.6692 60.9493 67.0757 60.8315 66.5453 60.5957C66.0149 60.36 65.5603 60.0317 65.1815 59.6107C64.811 59.1898 64.5248 58.6889 64.3227 58.108C64.1291 57.5271 64.0323 56.8915 64.0323 56.2011C64.0323 55.5108 64.1291 54.8752 64.3227 54.2943C64.5248 53.7134 64.811 53.2167 65.1815 52.8042C65.5603 52.3832 66.0149 52.0549 66.5453 51.8192C67.0757 51.5834 67.6692 51.4656 68.3259 51.4656C68.9825 51.4656 69.5761 51.5834 70.1064 51.8192C70.6368 52.0549 71.0872 52.3832 71.4577 52.8042C71.8365 53.2167 72.1227 53.7134 72.3164 54.2943C72.5184 54.8752 72.6194 55.5108 72.6194 56.2011ZM77.0043 51.6297H80.3002C80.7296 51.6297 81.1379 51.6634 81.5252 51.7308C81.9124 51.7897 82.2534 51.9076 82.548 52.0843C82.8427 52.2527 83.0784 52.4842 83.2552 52.7789C83.432 53.0651 83.5204 53.4356 83.5204 53.8902C83.5204 54.328 83.432 54.7278 83.2552 55.0898C83.0784 55.4519 82.8301 55.7255 82.5102 55.9107C82.9479 56.0959 83.2889 56.3653 83.533 56.7189C83.7772 57.0641 83.8993 57.5187 83.8993 58.0827C83.8993 58.571 83.8151 58.9877 83.6467 59.3329C83.4783 59.6697 83.2426 59.9475 82.9395 60.1664C82.6449 60.3768 82.2955 60.5326 81.8914 60.6336C81.4957 60.7346 81.0706 60.7852 80.6159 60.7852H77.0043V51.6297ZM78.2924 59.6991H80.6286C81.2852 59.6991 81.7735 59.5644 82.0934 59.295C82.4133 59.0172 82.5733 58.6173 82.5733 58.0954C82.5733 57.5566 82.4091 57.1693 82.0808 56.9336C81.7525 56.6894 81.2431 56.5673 80.5528 56.5673H78.2924V59.6991ZM78.2924 55.5445H80.5023C81.0327 55.5445 81.4494 55.435 81.7525 55.2161C82.064 54.9888 82.2197 54.6058 82.2197 54.067C82.2197 53.5955 82.0598 53.2546 81.7398 53.0441C81.4284 52.8252 81.0158 52.7158 80.5023 52.7158H78.2924V55.5445ZM90.4517 51.6297H91.9418L95.3893 60.7852H94.0002L93.2804 58.8025H89.0752L88.3681 60.7852H87.0547L90.4517 51.6297ZM89.4667 57.7039H92.8763L91.1589 52.9304L89.4667 57.7039ZM100.417 59.6739H105.254V60.7852H99.1292V51.6297H100.417V59.6739Z" fill="white"></path>
  <g clip-path="url(#clip0_874_436)">
    <path fill-rule="evenodd" clip-rule="evenodd" d="M53.6252 83.769L53.3263 81.7402C61.485 80.7791 68.2168 82.3612 73.2817 89.3185C68.121 83.3136 61.0647 82.7113 53.6252 83.769ZM52.0885 87.8744L51.5673 85.7138C60.0019 84.0802 67.9409 84.7301 73.3073 92.3762C67.467 86.2169 59.9125 86.0563 52.0885 87.8744ZM51.1701 92.1001L50.4023 89.9107C59.1039 87.4766 67.2358 87.7075 73.3545 95.3009C66.7696 89.2344 59.2636 89.3122 51.1701 92.1001Z" fill="#FF3924"></path>
    <path fill-rule="evenodd" clip-rule="evenodd" d="M93.8113 83.769L94.1103 81.7402C85.9516 80.7791 79.2197 82.3612 74.1548 89.3185C79.3168 83.3136 86.3731 82.7113 93.8113 83.769ZM95.3481 87.8744L95.8692 85.7138C87.4346 84.0802 79.4956 84.7301 74.1293 92.3762C79.9695 86.2157 87.524 86.055 95.3481 87.8731V87.8744ZM96.2665 92.1001L97.0342 89.9095C88.3326 87.4754 80.2007 87.7062 74.082 95.2996C80.6657 89.2332 88.1729 89.311 96.2665 92.0989V92.1001Z" fill="#FF3924"></path>
  </g>
  <path d="M89.42 119.101C89.7209 119.104 90.0218 119.108 90.3227 119.115C92.8538 117.983 94.7411 117.419 97.4515 118.263C100.202 119.247 102.034 121.055 104.857 121.507C103.246 122.694 101.85 123.501 99.9671 124.189C95.1571 125.605 91.0838 124.963 88.8248 120.131C93.7986 120.226 94.6305 122.868 98.9007 122.692C94.8518 122.312 94.3694 119.829 89.3404 119.602C88.7098 119.602 88.0792 119.602 87.4509 119.6C88.0106 119.32 88.5615 119.026 89.1014 118.713C93.0397 116.085 91.6945 113.965 93.9203 110.75C91.398 113.077 92.2321 116.51 88.4067 118.497C88.077 114.089 89.6943 111.189 93.511 108.979C94.8252 108.311 96.0266 107.894 97.4426 107.493C96.6019 110.071 97.1351 112.159 96.0244 114.905C94.8186 117.432 92.8494 118.224 90.1811 118.627C89.9311 118.79 89.6767 118.949 89.42 119.104M101.403 114.364C101.686 114.303 101.969 114.241 102.253 114.179C109.311 109.186 110.196 113.451 116.276 113.379C111.986 117.877 105.799 121.344 101.06 115.449C105.742 114.455 107.083 116.729 111.052 115.646C107.173 116.166 106.198 113.961 101.43 114.845C100.839 114.982 100.248 115.121 99.6551 115.255C100.12 114.874 100.576 114.481 101.018 114.071C104.178 110.761 102.476 109.078 103.941 105.596C102.023 108.311 103.494 111.343 100.319 114.023C98.5312 108.002 101.514 104.703 106.543 101.849C106.16 107.27 109.255 110.529 102.016 113.756C101.815 113.963 101.609 114.166 101.401 114.364H101.403ZM112.101 107.025C112.346 106.908 112.594 106.794 112.844 106.679C113.594 105.779 114.267 105.069 115.225 104.383C119.484 101.794 121.51 104.112 125.615 103.124C124.157 105.704 122.59 107.674 119.926 109.07C116.955 110.368 114.541 110.179 112.021 108.095C114.406 106.946 115.481 107.166 117.975 107.124C119.274 107.074 120.114 106.908 121.258 106.251C119.895 106.8 118.962 106.772 117.53 106.681C115.362 106.538 114.276 106.54 112.233 107.462C111.72 107.709 111.207 107.96 110.693 108.207C111.039 107.76 111.37 107.301 111.689 106.833C112.822 105.032 112.897 103.867 112.652 101.819C112.49 100.555 112.335 99.6684 112.614 98.3938C112.191 99.4677 112.165 100.24 112.205 101.373C112.313 103.684 112.424 104.913 111.036 106.933C109.558 104.441 109.28 102.171 110.255 99.428C111.18 97.258 112.514 95.8996 114.282 94.3779C114.773 98.2262 117.296 100.127 114.957 104.114C114.26 105.078 113.532 105.684 112.541 106.335C112.402 106.567 112.255 106.796 112.105 107.023L112.101 107.025ZM120.871 97.5293C121.075 97.3705 121.278 97.2117 121.484 97.0551C125.232 90.3422 127.648 93.4385 132.558 91.1317C130.748 96.3891 127.119 101.452 121.022 98.5371C124.411 95.9326 126.343 97.2955 129.164 94.9182C126.199 96.7993 124.584 95.3637 121.081 97.9086C120.659 98.2438 120.241 98.5834 119.818 98.9186C120.041 98.4312 120.252 97.9395 120.446 97.4411C121.705 93.5355 119.679 92.821 119.57 89.427C119.024 92.3645 121.369 94.2831 119.867 97.6704C116.008 93.4451 117.278 89.5726 120.318 85.3318C121.984 89.9431 125.752 91.3942 121.13 96.8015C121.048 97.0463 120.962 97.2867 120.871 97.5293ZM127.338 86.247C127.376 86.1985 127.509 86.0221 127.544 85.9934C127.628 85.892 127.714 85.7883 127.798 85.6869C129.761 78.9012 132.67 81.1903 136.699 78.1712C136.297 82.2113 135.027 86.2625 130.608 87.2857C129.549 87.471 128.728 87.4224 127.688 87.1468C127.798 86.999 128.243 86.4278 128.372 86.3418C130.635 84.2733 132.562 84.6195 134.37 82.2488C132.219 84.3725 130.425 83.6624 127.94 86.161C127.827 86.2911 127.721 86.4168 127.613 86.5513C127.294 86.9549 126.98 87.3585 126.661 87.7621C126.765 87.2637 126.856 86.7608 126.931 86.258C126.956 86.0904 126.973 85.9272 126.986 85.7596C126.986 82.3459 125.159 81.9974 124.42 79.1592C124.69 81.9092 126.396 82.5642 126.555 85.5788C126.584 85.7376 126.48 86.4146 126.444 86.5999C125.559 86.0331 124.953 85.4752 124.318 84.6372C122.084 81.4329 122.774 78.6454 124.267 75.2757C126.725 79.1526 130.487 79.7083 127.422 85.5347C127.411 85.667 127.398 85.7971 127.383 85.9295C127.387 85.9758 127.349 86.1919 127.34 86.2514L127.338 86.247ZM131.051 74.0032C131.15 73.7982 131.252 73.5931 131.356 73.388C131.768 66.5714 134.905 68.1063 137.989 64.4102C138.483 69.2994 137.554 74.7178 131.562 74.7464C133.257 71.3569 135.314 71.7296 136.68 68.7458C135.011 71.3856 133.175 70.8387 131.365 74.2238C131.159 74.6538 130.956 75.0838 130.752 75.5161C130.739 75.0419 130.717 74.57 130.679 74.0981C130.173 70.4682 128.276 70.6688 126.927 67.9475C127.584 70.5454 130.19 71.2202 130.305 74.5061C125.493 72.583 125.155 68.8429 126 64.2559C129.026 67.4557 132.597 67.1691 130.976 73.3262C131.004 73.5534 131.029 73.7783 131.051 74.0055V74.0032ZM131.931 60.7825C131.978 60.5664 132.027 60.3525 132.078 60.1364C131.009 53.7278 134.131 54.5702 136.257 50.5654C137.715 54.8988 137.932 60.0548 132.555 61.3736C133.365 57.8274 135.317 57.7459 135.945 54.7246C134.96 57.5099 133.182 57.3555 132.263 60.9215C132.168 61.3758 132.075 61.83 131.982 62.2821C131.87 61.8345 131.748 61.3912 131.611 60.9501C130.378 57.651 128.708 58.2575 126.887 56.0103C128.044 58.2861 130.553 58.3435 131.358 61.4177C126.599 60.6546 125.444 57.1813 125.285 52.8523C128.774 55.1635 131.876 54.0983 131.715 60.1562C131.79 60.3635 131.861 60.573 131.929 60.7803L131.931 60.7825ZM129.801 47.7801C129.801 47.5817 129.801 47.3832 129.801 47.1847C127.551 41.8215 130.562 41.8325 131.719 37.8982C133.921 41.5237 135.009 45.9034 130.485 48.1639C130.496 44.8714 132.25 44.4413 132.232 41.6296C131.881 44.298 130.237 44.5075 130.128 47.8309C130.135 48.2455 130.144 48.6601 130.153 49.0769C129.958 48.7108 129.757 48.3513 129.544 47.9963C127.75 45.3631 126.358 46.2497 124.276 44.642C125.763 46.4129 128.049 45.9387 129.411 48.4572C124.973 48.8034 123.21 46.0556 122.207 42.1522C125.772 43.4975 128.398 41.9097 129.478 47.2795C129.588 47.4449 129.695 47.6103 129.799 47.7801H129.801ZM124.92 35.9311C124.88 35.7547 124.84 35.5783 124.803 35.4019C121.73 31.1148 124.442 30.4774 124.756 26.7461C127.453 29.5843 129.195 33.2054 125.61 36.1252C124.966 33.1944 126.469 32.4776 125.916 29.9658C126.212 32.0432 124.606 33.3068 125.225 35.9047C125.312 36.2707 125.405 36.6368 125.495 37.0029C125.247 36.7206 124.995 36.4428 124.734 36.1737C122.873 34.2529 121.17 35.2607 119.329 34.2595C121.006 35.5452 122.975 34.6587 124.705 36.6104C120.783 37.8497 118.645 35.7701 116.977 32.4269C120.448 32.9496 122.495 30.9891 124.533 35.554C124.663 35.6775 124.794 35.8032 124.92 35.9311ZM76.4856 121.064C76.8042 121.137 77.1228 121.212 77.4392 121.289C87.0504 119.679 85.7561 124.301 91.9733 127.025C85.5746 129.568 77.4923 130.161 75.5939 121.979C80.7978 123.23 81.1297 126.141 85.6299 126.897C81.4837 125.622 81.5146 122.954 76.271 121.558C75.6006 121.408 74.9302 121.26 74.2598 121.108C74.9235 120.956 75.5851 120.786 76.2378 120.592C81.0367 118.835 80.1362 116.36 83.2448 113.537C80.0345 115.379 80.0898 119.084 75.5519 120.208C76.7135 113.482 81.2115 111.531 87.5062 111.008C84.6786 116.325 86.2185 120.994 77.4038 120.758C77.0984 120.868 76.7887 120.972 76.4789 121.069L76.4856 121.064Z" fill="white"></path>
  <path d="M59.109 119.101C58.8081 119.104 58.5072 119.108 58.2063 119.115C55.6751 117.983 53.7879 117.419 51.0775 118.263C48.3251 119.247 46.4954 121.055 43.6722 121.507C45.2829 122.694 46.679 123.501 48.5619 124.189C53.3719 125.605 57.4452 124.963 59.7042 120.131C54.7282 120.226 53.8985 122.868 49.6305 122.692C53.6794 122.312 54.1618 119.829 59.1908 119.602C59.8214 119.602 60.452 119.602 61.0803 119.6C60.5206 119.32 59.9697 119.026 59.4298 118.713C55.4915 116.085 56.8367 113.965 54.6109 110.75C57.1332 113.077 56.2991 116.51 60.1245 118.497C60.4542 114.089 58.8368 111.189 55.0202 108.979C53.706 108.311 52.5046 107.894 51.0886 107.493C51.9293 110.071 51.3961 112.159 52.5068 114.905C53.7126 117.432 55.6818 118.224 58.3501 118.627C58.6001 118.79 58.8545 118.949 59.1112 119.104M47.1259 114.364C46.8427 114.303 46.5595 114.241 46.2763 114.179C39.2184 109.186 38.3334 113.451 32.2533 113.379C36.5434 117.877 42.7296 121.344 47.4689 115.449C42.7872 114.455 41.4464 116.729 37.4771 115.646C41.3557 116.166 42.3314 113.961 47.0994 114.845C47.6901 114.982 48.2809 115.121 48.8738 115.255C48.4092 114.874 47.9534 114.481 47.5109 114.071C44.3514 110.761 46.0529 109.078 44.5882 105.596C46.5064 108.311 45.0351 111.343 48.2101 114.023C49.9978 108.002 47.0153 104.703 41.9862 101.849C42.369 107.27 39.2737 110.529 46.5131 113.756C46.7144 113.963 46.9202 114.166 47.1282 114.364H47.1259ZM36.4262 107.025C36.1806 106.908 35.9328 106.794 35.6827 106.679C34.9349 105.779 34.2601 105.069 33.3021 104.383C29.0429 101.794 27.0163 104.112 22.912 103.124C24.3701 105.704 25.9366 107.674 28.6004 109.07C31.5719 110.368 33.9857 110.179 36.5058 108.095C34.1207 106.946 33.0454 107.166 30.5519 107.124C29.2531 107.074 28.4124 106.908 27.2685 106.251C28.6314 106.8 29.5651 106.772 30.9966 106.681C33.1649 106.538 34.2512 106.54 36.2934 107.462C36.8067 107.709 37.32 107.96 37.8333 108.207C37.4882 107.76 37.1563 107.301 36.8377 106.833C35.7049 105.032 35.6296 103.867 35.8752 101.819C36.0367 100.555 36.1916 99.6684 35.9128 98.3938C36.3354 99.4677 36.362 100.24 36.3222 101.373C36.2138 103.684 36.1031 104.913 37.4904 106.933C38.9683 104.441 39.2471 102.171 38.2714 99.428C37.3466 97.258 36.0124 95.8996 34.2446 94.3779C33.7534 98.2262 31.2311 100.127 33.5698 104.114C34.2667 105.078 34.9946 105.684 35.9859 106.335C36.1252 106.567 36.2713 106.796 36.4217 107.023L36.4262 107.025ZM27.6579 97.5293C27.4544 97.3705 27.2508 97.2117 27.045 97.0551C23.297 90.3422 20.8809 93.4385 15.9691 91.1317C17.779 96.3891 21.4075 101.452 27.5052 98.5371C24.1157 95.9326 22.1841 97.2955 19.3631 94.9182C22.3279 96.7993 23.9431 95.3637 27.4455 97.9086C27.8681 98.2438 28.2863 98.5834 28.7089 98.9186C28.4854 98.4312 28.2752 97.9395 28.0805 97.4411C26.8216 93.5355 28.8482 92.821 28.9567 89.427C29.5032 92.3645 27.1579 94.2831 28.6602 97.6704C32.5188 93.4451 31.2488 89.5726 28.2088 85.3318C26.5428 89.9431 22.7749 91.3942 27.3968 96.8015C27.4787 97.0463 27.565 97.2867 27.6557 97.5293H27.6579ZM21.1907 86.247C21.1509 86.1985 21.0203 86.0221 20.9849 85.9934C20.9009 85.892 20.8146 85.7883 20.7305 85.6869C18.768 78.9012 15.8585 81.1903 11.8295 78.1712C12.2322 82.2113 13.5022 86.2625 17.9206 87.2857C18.9804 87.471 19.8034 87.4224 20.8411 87.1468C20.7305 86.999 20.2858 86.4278 20.1574 86.3418C17.894 84.2733 15.9669 84.6195 14.1593 82.2488C16.3099 84.3725 18.1042 83.6624 20.5889 86.161C20.7017 86.2911 20.8101 86.4168 20.9163 86.5513C21.2349 86.9549 21.5491 87.3585 21.8677 87.7621C21.7637 87.2637 21.673 86.7608 21.5978 86.258C21.5735 86.0904 21.5558 85.9272 21.5425 85.7596C21.5425 82.3459 23.3678 81.9974 24.109 79.1592C23.8391 81.9092 22.1332 82.5642 21.9739 85.5788C21.9452 85.7376 22.0492 86.4146 22.0846 86.5999C22.9696 86.0331 23.5758 85.4752 24.2108 84.6372C26.4432 81.4329 25.7551 78.6454 24.2617 75.2757C21.8058 79.1526 18.0423 79.7083 21.1066 85.5347C21.1177 85.667 21.131 85.7971 21.1464 85.9295C21.142 85.9758 21.1796 86.1919 21.1885 86.2514L21.1907 86.247ZM17.4781 74.0032C17.3785 73.7982 17.2767 73.5931 17.1727 73.388C16.759 66.5714 13.6238 68.1063 10.5396 64.4102C10.0462 69.2994 10.9755 74.7178 16.967 74.7464C15.2722 71.3569 13.2145 71.7296 11.8494 68.7458C13.5176 71.3856 15.354 70.8387 17.1639 74.2238C17.3697 74.6538 17.5732 75.0838 17.7768 75.5161C17.79 75.0419 17.8122 74.57 17.8498 74.0981C18.3564 70.4682 20.2526 70.6688 21.6022 67.9475C20.9451 70.5454 18.3387 71.2202 18.2237 74.5061C23.0359 72.583 23.3745 68.8429 22.5293 64.2559C19.5025 67.4557 15.9315 67.1691 17.5533 73.3262C17.5245 73.5534 17.5002 73.7783 17.4781 74.0055V74.0032ZM16.5953 60.7825C16.5466 60.5664 16.5001 60.3525 16.4492 60.1364C17.5179 53.7278 14.396 54.5702 12.2698 50.5654C10.8117 54.8988 10.5949 60.0548 15.9713 61.3736C15.1616 57.8274 13.2101 57.7459 12.5817 54.7246C13.5663 57.5099 15.3452 57.3555 16.2634 60.9215C16.3585 61.3758 16.4515 61.83 16.5444 62.2821C16.6572 61.8345 16.7789 61.3912 16.9161 60.9501C18.1485 57.651 19.8189 58.2575 21.6398 56.0103C20.4827 58.2861 17.9737 58.3435 17.1683 61.4177C21.9275 60.6546 23.0824 57.1813 23.2417 52.8523C19.7525 55.1635 16.6506 54.0983 16.8121 60.1562C16.7369 60.3635 16.6661 60.573 16.5975 60.7803L16.5953 60.7825ZM18.7281 47.7801C18.7281 47.5817 18.7281 47.3832 18.7281 47.1847C20.9783 41.8215 17.967 41.8325 16.8099 37.8982C14.6084 41.5237 13.5199 45.9034 18.0445 48.1639C18.0334 44.8714 16.2789 44.4413 16.2966 41.6296C16.6506 44.298 18.2923 44.5075 18.4007 47.8309C18.3941 48.2455 18.3852 48.6601 18.3764 49.0769C18.5711 48.7108 18.7724 48.3513 18.9848 47.9963C20.7792 45.3631 22.1708 46.2497 24.2528 44.642C22.766 46.4129 20.4805 45.9387 19.1176 48.4572C23.5559 48.8034 25.3193 46.0556 26.3215 42.1522C22.7572 43.4975 20.1309 41.9097 19.0512 47.2795C18.9406 47.4449 18.8343 47.6103 18.7304 47.7801H18.7281ZM23.6068 35.9311C23.6466 35.7547 23.6864 35.5783 23.724 35.4019C26.7972 31.1148 24.0847 30.4774 23.7705 26.7461C21.0734 29.5843 19.3344 33.2054 22.9165 36.1252C23.5603 33.1944 22.058 32.4776 22.6111 29.9658C22.3147 32.0432 23.9209 33.3068 23.3014 35.9047C23.2152 36.2707 23.1222 36.6368 23.0315 37.0029C23.2793 36.7206 23.5315 36.4428 23.7926 36.1737C25.6534 34.2529 27.357 35.2607 29.1978 34.2595C27.5207 35.5452 25.5516 34.6587 23.8214 36.6104C27.7442 37.8497 29.8815 35.7701 31.5497 32.4269C28.0783 32.9496 26.0317 30.9891 23.994 35.554C23.8634 35.6775 23.7329 35.8032 23.6068 35.9311ZM72.0434 121.064C71.7248 121.137 71.4084 121.212 71.0898 121.289C61.4786 119.679 62.7729 124.301 56.5557 127.025C62.9544 129.568 71.0367 130.161 72.9329 121.979C67.729 123.23 67.3971 126.141 62.8968 126.897C67.0431 125.622 67.0121 122.954 72.2558 121.558C72.9262 121.408 73.5966 121.26 74.267 121.108C73.6033 120.956 72.9417 120.786 72.289 120.592C67.49 118.835 68.3905 116.36 65.2819 113.537C68.4923 115.379 68.437 119.084 72.9749 120.208C71.8133 113.482 67.3152 111.531 61.0206 111.008C63.8482 116.325 62.3083 120.994 71.123 120.758C71.4283 120.868 71.7381 120.972 72.0478 121.069L72.0434 121.064Z" fill="white"></path>
  <path d="M45.2812 67.4147H47.5608L50.1789 74.6318H47.9192L47.5508 73.4273H45.2513L44.883 74.6318H42.6631L45.2812 67.4147ZM45.7391 71.8744H47.073L46.416 69.7043L45.7391 71.8744ZM51.4999 70.9984C51.4999 70.4144 51.5828 69.8901 51.7487 69.4256C51.9213 68.961 52.1635 68.5695 52.4754 68.2509C52.794 67.9257 53.1756 67.6769 53.6202 67.5043C54.0715 67.3318 54.5792 67.2455 55.1433 67.2455C55.6078 67.2455 56.0392 67.3119 56.4374 67.4446C56.8356 67.5707 57.1873 67.7598 57.4926 68.012C57.8045 68.2575 58.0633 68.5595 58.269 68.9179C58.4748 69.2696 58.6141 69.6744 58.6871 70.1323H56.6365C56.5635 69.7806 56.4009 69.5019 56.1487 69.2961C55.9032 69.0904 55.5912 68.9876 55.213 68.9876C54.7617 68.9876 54.39 69.1568 54.098 69.4952C53.8127 69.8271 53.67 70.3281 53.67 70.9984C53.67 71.6753 53.8127 72.183 54.098 72.5215C54.39 72.8533 54.7617 73.0192 55.213 73.0192C55.5912 73.0192 55.9098 72.913 56.1686 72.7006C56.4274 72.4883 56.5933 72.2095 56.6663 71.8644H58.707C58.634 72.3224 58.4947 72.7305 58.2889 73.0889C58.0832 73.4472 57.8244 73.7525 57.5125 74.0047C57.2006 74.2502 56.8422 74.4394 56.4374 74.5721C56.0392 74.6982 55.6078 74.7612 55.1433 74.7612C54.5792 74.7612 54.0715 74.675 53.6202 74.5024C53.1756 74.3299 52.794 74.0843 52.4754 73.7658C52.1635 73.4406 51.9213 73.0457 51.7487 72.5812C51.5828 72.1166 51.4999 71.589 51.4999 70.9984ZM62.6894 67.4147H64.969L67.587 74.6318H65.3273L64.959 73.4273H62.6595L62.2912 74.6318H60.0713L62.6894 67.4147ZM63.1473 71.8744H64.4812L63.8242 69.7043L63.1473 71.8744ZM74.0587 71.0183C74.0587 70.6068 74.009 70.275 73.9094 70.0228C73.8165 69.7707 73.6805 69.5782 73.5013 69.4455C73.3287 69.3061 73.123 69.2132 72.8841 69.1667C72.6452 69.1203 72.383 69.0971 72.0977 69.0971H71.6597V72.9495H72.0977C72.383 72.9495 72.6452 72.9263 72.8841 72.8798C73.123 72.8334 73.3287 72.7405 73.5013 72.6011C73.6805 72.4617 73.8165 72.2659 73.9094 72.0138C74.009 71.7616 74.0587 71.4298 74.0587 71.0183ZM72.0678 67.4147C72.6452 67.4147 73.186 67.4744 73.6904 67.5939C74.2014 67.7134 74.6427 67.9125 75.0144 68.1912C75.3927 68.4699 75.688 68.8416 75.9003 69.3061C76.1193 69.764 76.2288 70.3347 76.2288 71.0183C76.2288 71.7085 76.1193 72.2859 75.9003 72.7504C75.688 73.2083 75.3927 73.5766 75.0144 73.8554C74.6427 74.1341 74.2014 74.3332 73.6904 74.4527C73.186 74.5721 72.6452 74.6318 72.0678 74.6318H69.5791V67.4147H72.0678ZM78.4777 67.4147H84.1916V69.1966H80.5582V70.1124H84.0025V71.9043H80.5582V72.84H84.2314V74.6318H78.4777V67.4147ZM89.9914 74.6318L88.538 69.6645V74.6318H86.6665V67.4147H89.7126L90.9371 71.9043L92.1416 67.4147H95.1578V74.6318H93.2863V69.6346L91.8529 74.6318H89.9914ZM99.4724 67.4147L100.826 69.9332L102.2 67.4147H104.629L101.832 71.8445V74.6318H99.7511V71.8246L97.0335 67.4147H99.4724Z" fill="#FF3924"></path>
  <path fill-rule="evenodd" clip-rule="evenodd" d="M75.2403 0.125L76.7509 4.71334L81.6682 4.70306L77.6846 7.52804L79.2135 12.1087L75.2403 9.26827L71.2672 12.1087L72.7961 7.52804L68.8125 4.70306L73.7298 4.71334L75.2403 0.125Z" fill="white"></path>
  <defs>
    <clipPath id="clip0_874_436">
      <rect width="46.6312" height="13.8166" fill="white" transform="translate(50.4023 81.4844)"></rect>
    </clipPath>
  </defs>
</svg>
